<svg xmlns="http://www.w3.org/2000/svg" viewBox="0 0 160 160"><defs><style>.cls-1{fill:#fff;}.cls-2{fill:#ff0;}.cls-3{fill:#fbb03b;}.cls-4{fill:#666;}</style></defs><g id="レイヤー_3" data-name="レイヤー 3"><rect class="cls-1" y="10" width="10" height="10"/><rect class="cls-1" x="10" y="10" width="10" height="10"/><rect class="cls-1" x="20" y="10" width="10" height="10"/><rect class="cls-1" x="30" y="10" width="10" height="10"/><rect x="40" y="10" width="10" height="10"/><rect class="cls-2" x="50" y="10" width="10" height="10"/><rect class="cls-2" x="60" y="10" width="10" height="10"/><rect class="cls-2" x="70" y="10" width="10" height="10"/><rect class="cls-2" x="80" y="10" width="10" height="10"/><rect class="cls-2" x="90" y="10" width="10" height="10"/><rect x="100" y="10" width="10" height="10"/><rect class="cls-1" x="110" y="10" width="10" height="10"/><rect class="cls-1" x="120" y="10" width="10" height="10"/><rect class="cls-1" x="130" y="10" width="10" height="10"/><rect class="cls-1" x="140" y="10" width="10" height="10"/><rect class="cls-1" x="150" y="10" width="10" height="10"/><rect class="cls-1" width="10" height="10"/><rect class="cls-1" x="10" width="10" height="10"/><rect class="cls-1" x="20" width="10" height="10"/><rect class="cls-1" x="30" width="10" height="10"/><rect class="cls-1" x="40" width="10" height="10"/><rect x="50" width="10" height="10"/><rect x="60" width="10" height="10"/><rect x="70" width="10" height="10"/><rect x="80" width="10" height="10"/><rect x="90" width="10" height="10"/><rect class="cls-1" x="100" width="10" height="10"/><rect class="cls-1" x="110" width="10" height="10"/><rect class="cls-1" x="120" width="10" height="10"/><rect class="cls-1" x="130" width="10" height="10"/><rect class="cls-1" x="140" width="10" height="10"/><rect class="cls-1" x="150" width="10" height="10"/><rect class="cls-1" y="20" width="10" height="10"/><rect class="cls-1" x="10" y="20" width="10" height="10"/><rect class="cls-1" x="20" y="20" width="10" height="10"/><rect x="30" y="20" width="10" height="10"/><rect class="cls-2" x="40" y="20" width="10" height="10"/><rect class="cls-2" x="50" y="20" width="10" height="10"/><rect class="cls-2" x="60" y="20" width="10" height="10"/><rect class="cls-2" x="70" y="20" width="10" height="10"/><rect class="cls-2" x="80" y="20" width="10" height="10"/><rect class="cls-2" x="90" y="20" width="10" height="10"/><rect class="cls-2" x="100" y="20" width="10" height="10"/><rect x="110" y="20" width="10" height="10"/><rect class="cls-1" x="120" y="20" width="10" height="10"/><rect class="cls-1" x="130" y="20" width="10" height="10"/><rect class="cls-1" x="140" y="20" width="10" height="10"/><rect class="cls-1" x="150" y="20" width="10" height="10"/><rect class="cls-1" y="30" width="10" height="10"/><rect class="cls-1" x="10" y="30" width="10" height="10"/><rect x="20" y="30" width="10" height="10"/><rect class="cls-2" x="30" y="30" width="10" height="10"/><rect class="cls-2" x="40" y="30" width="10" height="10"/><rect x="50" y="30" width="10" height="10"/><rect class="cls-2" x="60" y="30" width="10" height="10"/><rect class="cls-2" x="70" y="30" width="10" height="10"/><rect x="80" y="30" width="10" height="10"/><rect class="cls-2" x="90" y="30" width="10" height="10"/><rect class="cls-2" x="100" y="30" width="10" height="10"/><rect x="110" y="30" width="10" height="10"/><rect class="cls-1" x="120" y="30" width="10" height="10"/><rect class="cls-1" x="130" y="30" width="10" height="10"/><rect class="cls-1" x="140" y="30" width="10" height="10"/><rect class="cls-1" x="150" y="30" width="10" height="10"/><rect class="cls-1" y="40" width="10" height="10"/><rect class="cls-1" x="10" y="40" width="10" height="10"/><rect x="20" y="40" width="10" height="10"/><rect class="cls-2" x="30" y="40" width="10" height="10"/><rect x="40" y="40" width="10" height="10"/><rect x="50" y="40" width="10" height="10"/><rect x="60" y="40" width="10" height="10"/><rect x="70" y="40" width="10" height="10"/><rect class="cls-2" x="80" y="40" width="10" height="10"/><rect class="cls-2" x="90" y="40" width="10" height="10"/><rect class="cls-2" x="100" y="40" width="10" height="10"/><rect class="cls-2" x="110" y="40" width="10" height="10"/><rect x="120" y="40" width="10" height="10"/><rect class="cls-1" x="130" y="40" width="10" height="10"/><rect class="cls-1" x="140" y="40" width="10" height="10"/><rect class="cls-1" x="150" y="40" width="10" height="10"/><rect class="cls-1" y="50" width="10" height="10"/><rect x="10" y="50" width="10" height="10"/><rect class="cls-2" x="20" y="50" width="10" height="10"/><rect x="30" y="50" width="10" height="10"/><rect class="cls-3" x="40" y="50" width="10" height="10"/><rect class="cls-3" x="50" y="50" width="10" height="10"/><rect class="cls-3" x="60" y="50" width="10" height="10"/><rect x="70" y="50" width="10" height="10"/><rect class="cls-2" x="80" y="50" width="10" height="10"/><rect class="cls-2" x="90" y="50" width="10" height="10"/><rect class="cls-2" x="100" y="50" width="10" height="10"/><rect class="cls-2" x="110" y="50" width="10" height="10"/><rect x="120" y="50" width="10" height="10"/><rect class="cls-1" x="130" y="50" width="10" height="10"/><rect class="cls-1" x="140" y="50" width="10" height="10"/><rect class="cls-1" x="150" y="50" width="10" height="10"/><rect class="cls-1" y="60" width="10" height="10"/><rect x="10" y="60" width="10" height="10"/><rect class="cls-2" x="20" y="60" width="10" height="10"/><rect class="cls-2" x="30" y="60" width="10" height="10"/><rect x="40" y="60" width="10" height="10"/><rect x="50" y="60" width="10" height="10"/><rect x="60" y="60" width="10" height="10"/><rect class="cls-2" x="70" y="60" width="10" height="10"/><rect class="cls-2" x="80" y="60" width="10" height="10"/><rect class="cls-2" x="90" y="60" width="10" height="10"/><rect class="cls-2" x="100" y="60" width="10" height="10"/><rect class="cls-2" x="110" y="60" width="10" height="10"/><rect class="cls-2" x="120" y="60" width="10" height="10"/><rect x="130" y="60" width="10" height="10"/><rect class="cls-1" x="140" y="60" width="10" height="10"/><rect class="cls-1" x="150" y="60" width="10" height="10"/><rect class="cls-1" y="70" width="10" height="10"/><rect x="10" y="70" width="10" height="10"/><rect class="cls-2" x="20" y="70" width="10" height="10"/><rect class="cls-2" x="30" y="70" width="10" height="10"/><rect class="cls-2" x="40" y="70" width="10" height="10"/><rect class="cls-2" x="50" y="70" width="10" height="10"/><rect class="cls-2" x="60" y="70" width="10" height="10"/><rect class="cls-2" x="70" y="70" width="10" height="10"/><rect class="cls-2" x="80" y="70" width="10" height="10"/><rect x="90" y="70" width="10" height="10"/><rect class="cls-2" x="100" y="70" width="10" height="10"/><rect x="110" y="70" width="10" height="10"/><rect class="cls-2" x="120" y="70" width="10" height="10"/><rect x="130" y="70" width="10" height="10"/><rect class="cls-1" x="140" y="70" width="10" height="10"/><rect class="cls-1" x="150" y="70" width="10" height="10"/><rect class="cls-1" y="80" width="10" height="10"/><rect x="10" y="80" width="10" height="10"/><rect class="cls-2" x="20" y="80" width="10" height="10"/><rect class="cls-2" x="30" y="80" width="10" height="10"/><rect class="cls-2" x="40" y="80" width="10" height="10"/><rect class="cls-2" x="50" y="80" width="10" height="10"/><rect class="cls-2" x="60" y="80" width="10" height="10"/><rect x="70" y="80" width="10" height="10"/><rect x="80" y="80" width="10" height="10"/><rect x="90" y="80" width="10" height="10"/><rect class="cls-2" x="100" y="80" width="10" height="10"/><rect x="110" y="80" width="10" height="10"/><rect x="120" y="80" width="10" height="10"/><rect x="130" y="80" width="10" height="10"/><rect class="cls-1" x="140" y="80" width="10" height="10"/><rect class="cls-1" x="150" y="80" width="10" height="10"/><rect class="cls-1" y="90" width="10" height="10"/><rect x="10" y="90" width="10" height="10"/><rect x="20" y="90" width="10" height="10"/><rect x="30" y="90" width="10" height="10"/><rect class="cls-2" x="40" y="90" width="10" height="10"/><rect x="50" y="90" width="10" height="10"/><rect class="cls-2" x="60" y="90" width="10" height="10"/><rect x="70" y="90" width="10" height="10"/><rect class="cls-4" x="80" y="90" width="10" height="10"/><rect x="90" y="90" width="10" height="10"/><rect x="100" y="90" width="10" height="10"/><rect x="110" y="90" width="10" height="10"/><rect class="cls-4" x="120" y="90" width="10" height="10"/><rect x="130" y="90" width="10" height="10"/><rect class="cls-1" x="140" y="90" width="10" height="10"/><rect class="cls-1" x="150" y="90" width="10" height="10"/><rect class="cls-1" y="100" width="10" height="10"/><rect x="10" y="100" width="10" height="10"/><rect x="20" y="100" width="10" height="10"/><rect class="cls-1" x="30" y="100" width="10" height="10"/><rect x="40" y="100" width="10" height="10"/><rect class="cls-1" x="50" y="100" width="10" height="10"/><rect x="60" y="100" width="10" height="10"/><rect x="70" y="100" width="10" height="10"/><rect class="cls-4" x="80" y="100" width="10" height="10"/><rect class="cls-4" x="90" y="100" width="10" height="10"/><rect x="100" y="100" width="10" height="10"/><rect class="cls-4" x="110" y="100" width="10" height="10"/><rect class="cls-4" x="120" y="100" width="10" height="10"/><rect x="130" y="100" width="10" height="10"/><rect class="cls-1" x="140" y="100" width="10" height="10"/><rect class="cls-1" x="150" y="100" width="10" height="10"/><rect class="cls-1" y="110" width="10" height="10"/><rect class="cls-1" x="10" y="110" width="10" height="10"/><rect x="20" y="110" width="10" height="10"/><rect class="cls-1" x="30" y="110" width="10" height="10"/><rect class="cls-1" x="40" y="110" width="10" height="10"/><rect class="cls-1" x="50" y="110" width="10" height="10"/><rect class="cls-1" x="60" y="110" width="10" height="10"/><rect x="70" y="110" width="10" height="10"/><rect class="cls-4" x="80" y="110" width="10" height="10"/><rect class="cls-4" x="90" y="110" width="10" height="10"/><rect class="cls-4" x="100" y="110" width="10" height="10"/><rect class="cls-4" x="110" y="110" width="10" height="10"/><rect class="cls-4" x="120" y="110" width="10" height="10"/><rect x="130" y="110" width="10" height="10"/><rect class="cls-1" x="140" y="110" width="10" height="10"/><rect class="cls-1" x="150" y="110" width="10" height="10"/><rect class="cls-1" y="120" width="10" height="10"/><rect class="cls-1" x="10" y="120" width="10" height="10"/><rect class="cls-1" x="20" y="120" width="10" height="10"/><rect x="30" y="120" width="10" height="10"/><rect class="cls-1" x="40" y="120" width="10" height="10"/><rect class="cls-1" x="50" y="120" width="10" height="10"/><rect class="cls-1" x="60" y="120" width="10" height="10"/><rect x="70" y="120" width="10" height="10"/><rect x="80" y="120" width="10" height="10"/><rect x="90" y="120" width="10" height="10"/><rect x="100" y="120" width="10" height="10"/><rect x="110" y="120" width="10" height="10"/><rect x="120" y="120" width="10" height="10"/><rect x="130" y="120" width="10" height="10"/><rect class="cls-1" x="140" y="120" width="10" height="10"/><rect class="cls-1" x="150" y="120" width="10" height="10"/><rect class="cls-1" y="130" width="10" height="10"/><rect class="cls-1" x="10" y="130" width="10" height="10"/><rect class="cls-1" x="20" y="130" width="10" height="10"/><rect class="cls-1" x="30" y="130" width="10" height="10"/><rect x="40" y="130" width="10" height="10"/><rect class="cls-1" x="50" y="130" width="10" height="10"/><rect class="cls-1" x="60" y="130" width="10" height="10"/><rect class="cls-1" x="70" y="130" width="10" height="10"/><rect class="cls-1" x="80" y="130" width="10" height="10"/><rect class="cls-1" x="90" y="130" width="10" height="10"/><rect class="cls-1" x="100" y="130" width="10" height="10"/><rect x="110" y="130" width="10" height="10"/><rect class="cls-1" x="120" y="130" width="10" height="10"/><rect class="cls-1" x="130" y="130" width="10" height="10"/><rect class="cls-1" x="140" y="130" width="10" height="10"/><rect class="cls-1" x="150" y="130" width="10" height="10"/><rect class="cls-1" y="140" width="10" height="10"/><rect class="cls-1" x="10" y="140" width="10" height="10"/><rect class="cls-1" x="20" y="140" width="10" height="10"/><rect x="30" y="140" width="10" height="10"/><rect class="cls-1" x="40" y="140" width="10" height="10"/><rect x="50" y="140" width="10" height="10"/><rect x="60" y="140" width="10" height="10"/><rect x="70" y="140" width="10" height="10"/><rect x="80" y="140" width="10" height="10"/><rect x="90" y="140" width="10" height="10"/><rect x="100" y="140" width="10" height="10"/><rect class="cls-1" x="110" y="140" width="10" height="10"/><rect x="120" y="140" width="10" height="10"/><rect class="cls-1" x="130" y="140" width="10" height="10"/><rect class="cls-1" x="140" y="140" width="10" height="10"/><rect class="cls-1" x="150" y="140" width="10" height="10"/><rect class="cls-1" y="150" width="10" height="10"/><rect x="10" y="150" width="10" height="10"/><rect x="20" y="150" width="10" height="10"/><rect x="30" y="150" width="10" height="10"/><rect class="cls-1" x="40" y="150" width="10" height="10"/><rect class="cls-1" x="50" y="150" width="10" height="10"/><rect class="cls-1" x="60" y="150" width="10" height="10"/><rect class="cls-1" x="70" y="150" width="10" height="10"/><rect class="cls-1" x="80" y="150" width="10" height="10"/><rect class="cls-1" x="90" y="150" width="10" height="10"/><rect class="cls-1" x="100" y="150" width="10" height="10"/><rect x="110" y="150" width="10" height="10"/><rect x="120" y="150" width="10" height="10"/><rect x="130" y="150" width="10" height="10"/><rect class="cls-1" x="140" y="150" width="10" height="10"/><rect class="cls-1" x="150" y="150" width="10" height="10"/></g></svg>