<svg id="レイヤー_1" data-name="レイヤー 1" xmlns="http://www.w3.org/2000/svg" viewBox="0 0 88.207 250.998"><defs><style>.cls-1,.cls-2{fill:#fff;}.cls-1,.cls-3{stroke:#231815;stroke-linecap:round;stroke-linejoin:round;stroke-width:1.995px;}.cls-3,.cls-5{fill:#7d7d7d;}.cls-4{fill:#040404;}.cls-6{fill:#fdfdfd;}</style></defs><path class="cls-1" d="M78.089,67.4c-.259-1.745-2.668-7.113-7.336-9.336-4.817-2.294-12.374.149-14-6.224-2.843.117-14.085,5.721-17.694,6.191-.92.12-.279,2.7-1.349,2.4C32.3,58.951,30.2,58.207,26.222,58.8c-2.964.445-8.208,3.611-10.6,6.963-1.815,2.551-1.779,5.485-3.186,8.449-4,2.963-6.742,4.075-8.521,10.3C3.356,86.482,3.807,88.96,2.658,92c-.579,1.532,9.781-.165,10.408,1.37.989,2.421,2.371,1.885,4.634.7,3.408-1.778,7.669-4.628,8.6-8.594a23.749,23.749,0,0,1,2.964,1.334"/><path class="cls-1" d="M73.94,65.917c-1.231.962-2.181,12.974-2.516,14.521-.5,2.29-.81,4.485-1.181,6.826-.358,2.247,3.493,8.105,3.252,10.513-.26,2.6-5.338.5-4.479,2.818,1.489,4.016,4.314,2.167,4.924,6.371.3,2.088-.223,6.446-2.816,11.114-.827,4.355,2.035,8.982,1.926,11.115,4.594,6.669-8.336,9.5-9.558,10-1.656.675,1.484,2.26.074,3.334-2.515,1.916-3.624,1.8-6.372,3.261-1.62.861-19.918,15.279-21.488,16.079-1.358.691-1.112-15.561-1.631-18.746a116.422,116.422,0,0,0-3.037-11.486c-1.643-6.364.793-8.765-1.556-14.893-.674-1.758-.154-5.933-.149-7.855.009-2.935-2.371-5.038-.741-8.595-.064-2.555-.05-4.862,1.334-6.668C28.6,92.157,28.247,92.662,27.11,92c-1.778-1.037-1.033-5.148-1.926-6.964-1.626-3.313-1.457-9.562,1.926-11.856.445-2.668.261-4.8,1.335-6.669"/><path class="cls-1" d="M52.748,59.988c2.223-1.334,4.71-3.037,3.927-5.334-.366-3.968,1.26-6.52.519-9.558-1.712-.468-18.608,6.445-20.164,6.445.189,2.18-.88,7.708-1.472,10.522a12.208,12.208,0,0,1,3.556,7.558"/><path class="cls-1" d="M55.415,47.1c-.535,4.194-1.371,4.862-3.186,7.114C50.81,55.968,47.9,57.4,45.412,58.8c-1.355.762-4.52.992-7.113-.149-2.176-.955-2-2.816-3.334-5.16-1.891-3.328-3.139-5.057-3.26-8.77-.054-1.659.393-3.407.37-5.335-.05-4.378-.889-7.558.815-11.782,2.664-6.6,11.7-7.371,17.413-5.557,2.605.828,3.493,2.68,4.579,3.9,3.11,3.5,3.256,9.685,2.491,15.716"/><path class="cls-2" d="M46.772,35.4a6.935,6.935,0,0,1-3.879,1.326c.289.555-.459,1.975-.149,2.521,1.322-.546,5.855-4.2,7.419-1.825C50.854,36.29,48.489,34.005,46.772,35.4Z"/><path class="cls-2" d="M45.7,40.178c-.427,1.4,1.739,1.954,1.878.514A.975.975,0,0,0,45.7,40.178Z"/><path class="cls-2" d="M36.379,35.25c1.014.821.645,1.333,2.217,1.472.147,1.112.757,2.05.444,2.594-1.322-.544-4.488-4.417-6.053-2.041C32.3,36.144,34.661,33.86,36.379,35.25Z"/><path class="cls-2" d="M37.393,40.1c.452,1.4-1.739,1.952-1.878.513A.975.975,0,0,1,37.393,40.1Z"/><path class="cls-1" d="M43.93,45.54c-.078.623-1.226,1.508-1.631,1.63a6.6,6.6,0,0,1-2.147.149c-1.161-.041-1.407-.782-1.586-1.957"/><path class="cls-1" d="M40.659,41.936c-.107.741-.542,2.542-1.09,2.955"/><path class="cls-1" d="M46.746,49.246c-.713,1.574-4,2.445-5.483,2.445-1.869,0-2.816-.371-3.334-2.3"/><path class="cls-1" d="M58.6,36.722c.267,1.708-3.666,2.011-4.595,5.484.593-6.669-2.1-8.41-3.038-9.188,1.711-1.4,1.7-3.631,1.927-4.445.315-1.156-.663-3.659-1.779-4-3.852-1.186-6.651.919-9.335,1.185a10.857,10.857,0,0,1-6-.815c-1.611.792-3.037,2.667-3.779,5.928a8.533,8.533,0,0,1,3.409-7.04,22.949,22.949,0,0,1,6.224-2.667,20.3,20.3,0,0,1,6.013-.5,13.716,13.716,0,0,1,7.391,3.112C55.89,24.489,60.231,28.8,58.6,36.722Z"/><path class="cls-1" d="M55.045,40.946a5.758,5.758,0,0,1,1.926-4.593,2.186,2.186,0,0,1,2.964.147c.9.845.813,3.805.667,4.89a8.538,8.538,0,0,1-2.075,4.521c-.812.891-3.112,1.556-3.927-.222"/><path class="cls-1" d="M59.194,38.056c-1.4-1.789-2.742,1.705-2.964,3.187"/><path class="cls-1" d="M56.749,39.612c.734-.951,1.231,1.763,1.259,2.223a2.668,2.668,0,0,1-1.259,2.52"/><path class="cls-1" d="M29.926,70.51c-1.84.015-3.64,2.7-4.742,4.149-1.449,1.9-2.181,5.236-2.371,7.558-.593,7.263,7.921,17.7,12.581,9.219-.281-.065,2.355-2.129,2.09-2.031"/><path class="cls-1" d="M39.262,73.771c-.3,3.261-4.3,11.668-4.445,13.486-.36,4.4-.257,5.314,3.408,8,1.7,1.246,9.077,1.174,10.966.591,2.156-.663,3.26-.591,6.372-2.667,1.865-1.243,8.492-8.532,8.447-8.3"/><path class="cls-1" d="M57.49,59.543a12.571,12.571,0,0,1-9.633,6.966"/><path class="cls-1" d="M28.592,114.228c-1.155-.364-1.8,1.3-2.667,1.927"/><path class="cls-1" d="M17.033,73.325a12.4,12.4,0,0,0-6.817,2.52"/><path class="cls-2" d="M44.305,93.484c-2.907.943.54,2.565,2.074,1.6C48.592,93.687,45.529,93.088,44.305,93.484Z"/><path class="cls-2" d="M25.5,87.871c-.422,1.19.119,1.829.777,2.708.037.05,1.186,1.339,1.276.827C27.812,89.936,27.182,88.121,25.5,87.871Z"/><path class="cls-1" d="M44.893,100.15c.1-.022.021-.257.271-.129.9.458-.983,3.762-1.185,4.262-.462,1.139-.947,5.044-.419,6.24.7,1.59,1.85,3.65.445,5.483"/><path class="cls-1" d="M28.592,99.705c2.3,2.3,3.779-.964,6.076-4.445.741,4,3.477,5.008,6.032,4.881a2.452,2.452,0,0,1-.4.156"/><path class="cls-1" d="M34.223,98.223c-.892,2.444,1.365,4.533.446,7.121-.616,1.732-2.168,4.776-.446,6.365"/><path class="cls-1" d="M20.738,107.262c-.891-1.719-3.857-2.4-6.817-4-5.483-2.964-7.21-5.159-9.929-7.41"/><path class="cls-1" d="M66.678,92.3c-3.557,1.853-9.451,5.593-13.189,4.668"/><path class="cls-1" d="M66.678,97.038c-1.332.59-10.966,2.815-12.6,2.223"/><path class="cls-1" d="M22.96,76.587c-2.825-.319-5.334.445-4.815,8.595"/><path class="cls-1" d="M56.49,81.958c.667-1.667,4.335-3.112,6.928-2.08-5.187,2.692-4.446,14.069.741,14.069-.445,2.459-.593,2.767-.149,4-5.779.616-6.225,3.942-7.187,5.689C54.748,107.4,51.266,114.24,44.3,115.546c-4.149-.152-4.049-2.648-6.076-2.151-1.686.415-6.076-.649-8.743.24-.445-2.46-3.177-1.5-3.409-.7-.237.824-4.729,5.93-4.594,7.592.12,1.483,2.816,1.017,4.149,2.248.445,2.767,3.426,3.861,4.15,4.3a5.647,5.647,0,0,0,4.816,1c1.692-.3,4.668-2.537,11.04-3.766,3.8-.734,19.54-5.105,21.637-6.151,3.853-1.921,9.41-5.534,11.781-11.993,3.4-1.751,1.556-.23,3.779-2.306,1.28-1.2,1.779-2.537,1.779-7.071,1.11-4.755,3.371-13,2.334-17.945-.251-1.2-1.223-3.556-3.224-4.349a12.749,12.749,0,0,0-1.185-10.07,9.249,9.249,0,0,0-4.594-3.536C73.5,59.66,68.008,62.012,64.9,63.965A66.542,66.542,0,0,1,56.3,69.038c-2.711,1.243-6.17,1.271-6.372.924"/><path class="cls-1" d="M73.643,99.481c.741,4-14.227,18.6-21.043,17.835"/><path class="cls-1" d="M74.384,84.259c-4.316-.425-9.336,5.382-10.522,10.917"/><path class="cls-1" d="M84.61,98.789c-.388-1.588-.567-4.05-1.927-5"/><path class="cls-1" d="M72.161,82.261a5.64,5.64,0,0,0-7.113-2.921"/><path class="cls-1" d="M63.159,79.735A3.131,3.131,0,0,1,61.491,76.4c.329-1.973,1.995-4.023,1.668-5.113"/><path class="cls-1" d="M82.831,83.645c1.91.724-.3,4.46-2.075,6.765.148,8.763-.592,11.377-6.668,14.605"/><path class="cls-1" d="M68.308,98.4c-1.127-.034-3.409-.768-4.742-.307"/><path class="cls-1" d="M40.868,198.644a4.788,4.788,0,0,0-2.717-.761c-8.331.676-2.575,10.391-1.111,14.226,2.716,7.121,8.092,14.306,8.447,22.007-1.27,4.313-1.779,3.556-3.557,5.112-2.42,1.591-8,6.2-10.892,6.668-1.5.244-4.224-.666-4.446,2.446-.125,1.753,5.781.891,7.335.889,3.8,0,7.607.025,11.337.223,6.618.348,18.484-.8,15.615-10.226-1.592-5.234-4.524-10.035-6.945-14.943A60.526,60.526,0,0,1,49.8,212.706c-.611-2.344-.44-4.13-1.746-6.25C46.813,204.443,43.83,200.349,40.868,198.644Z"/><path class="cls-1" d="M55.267,173.875c2-1.677,2.614-4.341,4-6.668a13.4,13.4,0,0,0,1.778-9.114c2.667-.889,11.1-8.7,12-10.893,1.634-3.962,2.149-8.235,2.668-11.336.436-2.592-3.337,1.9-6.227.444a5.328,5.328,0,0,0-5.11.662,60.511,60.511,0,0,0-11.337,8.887c-2.1,2.212-3.5,5.4-5.34,7.857-1.5,1.993-3.412,3.6-4.836,5.539a91.459,91.459,0,0,0-5.884,9.683c-4.755,8.572-11.238,24.333-.66,31.225a7.814,7.814,0,0,0,4.939,1.278c.821-.076,2.421-.945,2.676-1.807.4-1.34-.383-.519-.752-1.561-1.011-2.845-2.129-5.78-.368-8.635,1.537-2.494,3.334-4.224,4-9.337C47.633,177.8,52.145,176.491,55.267,173.875Z"/><path class="cls-1" d="M53.934,129.2c4.836-1,11.91-.8,16.034,2.244,2.759,2.037,3.381,5.512,2.638,8.647-1.1,4.629-4.224,11.559-13.782,15.56-1.334,7.114-1.793,8.965-4.89,12.449-3.027,3.4-11.337,10.225-14,14.893,4.891,2,6.324,4.952,7.558,8.225a140.136,140.136,0,0,1,6.447,22.006c.206,1.062,2.644,3.217,4,3.779,2.818,1.169,4.668-.444,6.224,2.223,1.556,5.335-1.954,7.071-2.223,11.781-.18,3.154,2.078,7.544,2,10.448-.14,5.227-5.279,8.377-6,8.447-.434.043-6.891.667-6.669-1.778-.255-.8,3.167-1.917,6-3.335C54.323,240.773,53.153,231.7,48.6,225c-1.457-2.14-2.193-5.256-3.779-7.336C36.249,206.435,25.7,200.55,25.48,193.437c-2.172-.9-4.659-3.734-5.557-4.891-2.872-3.7.629-6.5.667-9.113-1.334-4,.352-12.818.445-14.449.118-2.093,2.667-12.893,8.891-16.228,3.348-1.793,4.224-4.89,6.891-10.892,2.577-3.185,4.741-3.017,8.23-4.5C48.223,132.012,50.576,129.891,53.934,129.2Z"/><path class="cls-3" d="M51.488,125.861c7.781-2,13.338-2.89,20.229-2.446,2.89,6,5.311,11.172,4,15.561-.725,2.428-1.556,3.779-4.446,4.668.445-7.558-5.779-8.447-13.337-10.448-2.213-.585-18.9.445-23.785,10.67a23.281,23.281,0,0,1-1.223-5,30.725,30.725,0,0,1,9.225-9A27.982,27.982,0,0,1,51.488,125.861Z"/><path class="cls-1" d="M57.046,221.89c0,2.689-.668,6.764-3.557,4.445"/><path class="cls-1" d="M52.378,237.894c1.208,2.985-.549,4.553-2.668,5.113"/><path class="cls-1" d="M57.49,245.452c-1.556,2.668-3.195,5.418.667,4.224"/><path class="cls-1" d="M57.49,245.008c-1.67.464-4,2.667-3.556,4.446"/><path class="cls-1" d="M40.6,183.211c-2.89-1.556-2.89-1.333-5.779-2.889,2.445-2.89,6.781-5.58,8.224-3.779"/><path class="cls-1" d="M37.484,170.986a26.273,26.273,0,0,1-2.445,5.779c-.684,1.467-2.257,4.258-3.112,6,7.558,1.111,11.781,4,12.67,6.446"/><path class="cls-1" d="M44.153,154.758c.421,1.958,1.925,5.187.889,8-1.132,3.076-4.9,5.7-6.508,6.83-3.235,2.257-11.5,8.285-11.942,15.843"/><path class="cls-1" d="M30.371,182.767c.889,9.336,6.446,22.9,16.449,26.007"/><path class="cls-1" d="M46.82,196.1a11.749,11.749,0,0,1-11.781-2"/><path class="cls-1" d="M20.368,178.766c1.333,3.112,2.272,3.731,2,6.446"/><path class="cls-1" d="M65.27,146.756c-.124,3.222-10.866,4.384-13.782,3.779"/><path class="cls-1" d="M29.037,149.2c4.112-2.445,8.447-3.334,9.559-7.113"/><path class="cls-1" d="M29.482,113.635c-1.479.687-4.46,5.165-5.113,5.557"/><path class="cls-1" d="M6.808,84.737C5.433,88.294,3.245,89.85,2.023,92.37a6.794,6.794,0,0,0-.917,4.89c.425,3.335,2.445,3.111,4.89,5.7,2.751,2.815,4.508,4.668,7.87,6.446,3.959,2.094,8.635,3.112,12.3,6.224-.153,4.151,5.844,1.926,7.985,2.223,1.553,1.733,3.075,6.35,5.222,6.062.681-.092,3.834-1.9,3.909-2.357.422-2.527.994-3.669.383-7.373-.459-2.075-2.437-2.862-4.071-3.445-2.445-.149-5.195-1.385-7.009-1.926a9.381,9.381,0,0,1-3.668-2.075c-.459-1.037-1.375-1.779-3.362-2.37-1.973-1.876-2.746-5.285-4.078-8.745a18.508,18.508,0,0,0-5.335-7.78"/><path class="cls-1" d="M42.979,112.634c1.146,2.334,1.962,2.336,2.285,4.113a19.528,19.528,0,0,1,.334,4.112c-.111,2-.348,1.692-.938,2.038-1.452.852-2.374.381-2.369-.593,0-.513-.993-3.259-1.146-4.742"/><path class="cls-1" d="M42.041,114.857c.611,3.408.431,4.3.889,6.224.285,1.2,1.334,4.446-.524,4.78-.732.131-1.731.5-2.178-.223-.665-1.066-.848-3.673-.917-4.37-.148-1.466-.69-2.51-.764-3.706"/><path class="cls-1" d="M38.151,115.413c-.075-.163,1.542,4.633,1.848,6.113.25,1.209,1.261,4.89.344,5.335-.517.25-1.6.645-2.064,0a17.133,17.133,0,0,1-2.024-5.593c-.148-1.466-1.3-1.472-1.376-2.668"/><path class="cls-1" d="M34.705,117.3c.237,1.315,1.258,2.585,1.556,3.557.231.754.768,2.188,1.1,3.223.378,1.176.45,1.779-1.657,1.779-.767,0-1.334-.89-1.667-3.335-.493-1.057-1.709-2.532-2.223-3.445-1.605-.667-3.441-.118-5.342-1.37-1.205-.794-3.661-3.743-1.549-6.077"/><path class="cls-1" d="M23.7,111.078c-2.89-4.334-11.747-8.372-16.449-10.225"/><path class="cls-1" d="M8.136,88.516C5.385,90,4.816,91.9,4.926,93.11c.14,1.548,1.326,4.2,2.6,5.039"/><path class="cls-4" d="M12.873,19.568V17.813h.853c.132-.639-.042-1.228.113-1.773a14.452,14.452,0,0,0,1.737-.092V14.21H17.34V12.4h1.776V10.631h1.747a13.855,13.855,0,0,1,.108-1.78H24.5V7.07h1.7V5.256H24.459V3.5H22.7V1.731H20.929V0H65.518V1.762h1.8V3.536h1.754V5.291h1.781V7.1h1.809V8.909h1.778v1.753H76.2v1.772H78v1.782h1.715V32.09H78v1.772h3.56v1.753l.436.021v3.51l-.409.007V37.389H79.776V35.678H74.405v5.314H72.681v3.545H74.45v1.789H70.837v3.612h-1.81v3.536H67.266v3.571H65.555c-.112.618.051,1.206-.114,1.811H60.132v1.729h-30.3V58.839H26.239V57.012h-1.72A16,16,0,0,0,24.4,55.2h-1.72V51.694H20.886V41.025h-1.8v1.786H17.309v1.7h-1.76V19.568Zm38.34,16.054v5.391h1.718c.143.622-.04,1.192.128,1.719H63.646c.146-.585-.058-1.158.13-1.68.583-.144,1.158.067,1.688-.136V35.6H61.886V34.046H53.029a14.075,14.075,0,0,1-.115,1.586H51.2V33.855h1.8V32.041H61.9a10.44,10.44,0,0,0-.031-1.8,4.9,4.9,0,0,0,1.856-.139V26.691h1.808V21.345a8.266,8.266,0,0,1,1.766.061V37.322c.987.146,1.224.121,1.775-.205v-8.65h1.765V19.615a7.978,7.978,0,0,1,1.788,0v8.8c-.582.179-1.18-.06-1.685.138V32.04h1.675a13.607,13.607,0,0,0,.128,1.779h1.694V32.04h1.789V28.461h1.7V16H76.251c-.148-.6.043-1.2-.137-1.775H74.475c-.138-.573.067-1.19-.134-1.821H72.649V10.713c-.641-.149-1.233.052-1.85-.154V9.083c-.6-.143-1.171.041-1.692-.124-.164-.578.064-1.154-.146-1.677a11.712,11.712,0,0,1-1.685-.138V5.264h-1.7c-.149-.621.048-1.192-.158-1.787H63.7v-1.7H26.259a8.578,8.578,0,0,0,.035,1.687,16.434,16.434,0,0,1,1.742.13V5.28h3.556V7.054a14.437,14.437,0,0,1-3.54.185c-.129.517.081,1.09-.131,1.66a7.659,7.659,0,0,0-1.693.185v1.577H22.769c-.145.612.039,1.183-.131,1.718a14.068,14.068,0,0,0-1.735.136v1.608c-.614.19-1.217-.058-1.826.192v1.6c-.565.383-1.155.177-1.7.3v1.544c.585.135,1.155-.056,1.687.124v1.7H17.374v19.57A4.836,4.836,0,0,0,19,39.079c.213-.541-.012-1.1.154-1.623.535-.188,1.127.106,1.732-.246V28.527h1.788c.107,1.167-.062,2.31.113,3.517h1.7v1.778H26.2V26.678H22.743V24.942h5.275V21.415c.617-.214,1.258.137,1.8-.391V17.867c.619-.167,1.216.057,1.823-.164V16.071h1.763v19.56h1.747a10.037,10.037,0,0,1-.053,1.718c-.58.137-1.15-.06-1.731.143v1.647a8.337,8.337,0,0,1-1.751-.01V33.96H27.978v1.631a16.374,16.374,0,0,0-1.692.109v7.034c.582.123,1.151-.047,1.742.129V44.5H35.1c.138-.588-.063-1.159.149-1.745H38.7V35.641h-3.56V33.926c.643-.148,1.213.042,1.823-.164V30.3c.642-.139,1.288.138,1.822-.353v-3.22h1.776v3.556H38.8v3.594h1.767v3.478h8.922V35.622ZM69.1,41.116c-.577-.269-1.175-.058-1.834-.123V42.8H65.5v1.705h-14.3V42.763H49.438V39.221h-7.1v8.917h7.081v1.748H40.515V44.6h-3.6v1.692H26.24v-1.71a16.352,16.352,0,0,1-1.8-.1V39.217h-1.7V49.935h1.762V53.5h1.766v1.756h1.754V57.05h3.616V58.8H58.39V57h5.347v-1.77h1.787V51.672h1.781V48.1h1.744c0-.388,0-.723,0-1.057q.021-2.967.042-5.938c.541-.269,1.138.015,1.717-.171V37.442H69.037C69.1,38.7,68.973,39.907,69.1,41.116ZM31.59,28.534H28.05V32.01h3.54Zm-1.721-7.181v5.333h1.7V21.353ZM65.5,32.087H63.757v1.724H65.5ZM24.434,37.372v-1.7h-1.7v1.7Z"/><path class="cls-5" d="M35.154,35.631H33.407V16.071H31.644V17.7c-.607.221-1.2,0-1.823.164v3.157c-.545.528-1.186.177-1.8.391v3.527H22.743v1.736H26.2v7.144H24.487V32.044h-1.7c-.175-1.207-.006-2.35-.113-3.517H20.887V37.21c-.605.352-1.2.058-1.732.246-.166.526.059,1.082-.154,1.623a4.836,4.836,0,0,1-1.627.068V19.577h1.687v-1.7c-.532-.18-1.1.011-1.687-.124V16.209c.548-.122,1.138.084,1.7-.3v-1.6c.609-.25,1.212,0,1.826-.192V12.515a14.068,14.068,0,0,1,1.735-.136c.17-.535-.014-1.106.131-1.718h3.459V9.084A7.659,7.659,0,0,1,27.921,8.9c.212-.57,0-1.143.131-1.66a14.437,14.437,0,0,0,3.54-.185V5.28H28.036V3.6a16.434,16.434,0,0,0-1.742-.13,8.578,8.578,0,0,1-.035-1.687H63.7v1.7h1.714c.206.6.009,1.166.158,1.787h1.7v1.88a11.712,11.712,0,0,0,1.685.138c.21.523-.018,1.1.146,1.677.521.165,1.091-.019,1.692.124v1.476c.617.206,1.209.005,1.85.154V12.4h1.692c.2.631,0,1.248.134,1.821h1.639c.18.575-.011,1.171.137,1.775H77.92V28.461h-1.7V32.04H74.435v1.779H72.741a13.607,13.607,0,0,1-.128-1.779H70.938V28.553c.5-.2,1.1.041,1.685-.138v-8.8a7.978,7.978,0,0,0-1.788,0v8.852H69.07v8.65c-.551.326-.788.351-1.775.205V21.406a8.266,8.266,0,0,0-1.766-.061v5.346H63.721V30.1a4.9,4.9,0,0,1-1.856.139l.014.009V23.107H60.12V19.551H58.343v-3.54h-1.75V14.238H51.176v5.334H49.439v3.486a17.564,17.564,0,0,0-1.79.158v3.469H45.887V19.622H42.353c-.136.571.081,1.125-.2,1.712h-1.6v5.4l.013-.01H38.789v3.22c-.534.491-1.18.214-1.822.353v3.463c-.61.206-1.18.016-1.823.164v1.715Z"/><path class="cls-6" d="M69.094,41.105q-.023,2.967-.045,5.933c0,.334,0,.669,0,1.057H67.305v3.577H65.524v3.559H63.737V57H58.39v1.8H31.644V57.05H28.028V55.256H26.274V53.5H24.508V49.935H22.746V39.217h1.7v5.259a16.352,16.352,0,0,0,1.8.1v1.71H36.914V44.6h3.6v5.291h8.907V48.138H42.341V39.221h7.1v3.542h1.755v1.745H65.5V42.8H67.27v-1.81c.659.065,1.257-.146,1.834.123ZM49.463,53.459h3.529V51.681h1.815V49.968c.619-.135,1.209.05,1.75-.116V48.13H54.791v1.812H52.969v1.787H49.484c0,.628,0,1.188,0,1.749H45.9v1.709h3.567Z"/><path class="cls-6" d="M51.213,35.622H49.484v1.732H40.562V33.876H38.8V30.282h1.77V26.726l-.013.01H42.33V23.167H44.1V33.833h1.791V32.045h5.3a16.451,16.451,0,0,1,.1-1.809H56.6v-1.77h1.786v-1.75l-.02.02h1.783v3.51h1.733l-.014-.009a10.44,10.44,0,0,1,.031,1.8H53.008v1.814H51.2v1.777Z"/><path class="cls-5" d="M51.2,35.632h1.711a14.075,14.075,0,0,0,.115-1.586h8.857V35.6h3.578v5.319c-.53.2-1.105-.008-1.688.136-.188.522.016,1.095-.13,1.68H53.059c-.168-.527.015-1.1-.128-1.719H51.213V35.622Z"/><path class="cls-5" d="M35.144,35.641H38.7v7.113h-3.45c-.212.586-.011,1.157-.149,1.745H28.028V42.863c-.591-.176-1.16-.006-1.742-.129V35.7a16.374,16.374,0,0,1,1.692-.109V33.96h3.641v5.169a8.337,8.337,0,0,0,1.751.01V37.492c.581-.2,1.151-.006,1.731-.143a10.037,10.037,0,0,0,.053-1.718Z"/><path class="cls-6" d="M74.45,44.537H72.681V40.992h1.724V35.678h5.371v1.711H81.59v1.764l.016-.02-1.855.081v1.791h-1.8V42.79H74.429v1.767Z"/><path class="cls-6" d="M31.59,28.534V32.01H28.05V28.534Z"/><path class="cls-6" d="M29.869,21.353h1.7v5.333h-1.7Z"/><path class="cls-6" d="M69.1,41.116c-.131-1.209-.006-2.42-.067-3.674h1.771v3.487c-.579.186-1.176-.1-1.715.173Z"/><path class="cls-6" d="M65.5,32.087v1.724H63.757V32.087Z"/><path class="cls-6" d="M24.434,37.372h-1.7v-1.7h1.7Z"/><path class="cls-4" d="M74.429,44.557V42.79h3.523V41.005h1.8V39.214l1.855-.081v3.626H79.775v1.8Z"/><path class="cls-4" d="M61.879,30.246H60.146v-3.51H58.363V21.323H56.588V17.8H54.78V16.066H52.963v5.311H51.194v3.577h-1.71c0,1.218,0,2.381,0,3.544H47.711v1.735h1.751V28.478h5.329V26.716h3.592v1.75H56.6v1.77H51.289a16.451,16.451,0,0,0-.1,1.809h-5.3v1.788H44.1V23.167H42.33v3.569H40.552v-5.4h1.6c.277-.587.06-1.141.2-1.712h3.534v7.063h1.762V23.216a17.564,17.564,0,0,1,1.79-.158V19.572h1.737V14.238h5.417v1.773h1.75v3.54H60.12v3.556h1.759Z"/><path class="cls-4" d="M49.484,53.478V51.729h3.485V49.942h1.822V48.13h1.766v1.722c-.541.166-1.131-.019-1.75.116v1.713H52.992v1.778H49.463Z"/><path class="cls-4" d="M49.463,53.459v1.728H45.9V53.478h3.587Z"/><path class="cls-6" d="M58.383,26.716H54.791v1.762H49.462l.022.021V24.954h1.71V21.377h1.769V16.066H54.78V17.8h1.808v3.521h1.775v5.413Z"/><path class="cls-6" d="M49.462,28.478v1.755H47.711V28.5h1.772Z"/></svg>