<svg id="レイヤー_1" data-name="レイヤー 1" xmlns="http://www.w3.org/2000/svg" viewBox="0 0 108.64 242.021"><defs><style>.cls-1,.cls-4,.cls-5{fill:#fff;}.cls-1,.cls-3{stroke:#231815;}.cls-1,.cls-3,.cls-5,.cls-6,.cls-7{stroke-linecap:round;stroke-linejoin:round;stroke-width:2.021px;}.cls-2{fill:#231815;}.cls-10,.cls-3{fill:#b64e30;}.cls-5,.cls-6,.cls-7{stroke:#221e1f;}.cls-6{fill:none;}.cls-7{fill:#eb1b23;}.cls-8{fill:#221e1f;}.cls-9{fill:#eaadff;}</style></defs><path class="cls-1" d="M78.924,150.241a111.6,111.6,0,0,1,4.447,17.784c5.716,8.681,5.081,17.15.423,23.925-.635,6.987-6.987,13.55-11.221,23.29-1.04,3.93-2.774,10.944-2.435,12.809a12.457,12.457,0,0,1,6.034,4.552,8.315,8.315,0,0,0,5.505,3.176c2.54.508,3.856.774,2.964,2.329-1.721,3-15.006.78-17.785,1.058-3.021.3-8.363.634-9.1-2.329-.847-3.387,1.549-7.988,1.906-9.951.692-3.809.919-5.978,1.482-8.892.687-3.552,0-5.5-.212-9.739-1.059-4.023,0-9.74,1.906-13.551,1.491-2.983,6.024-6.533,7.2-13.973-4.2-6.6-8.491-7.81-10.268-9.655-2.321-2.408-4.25-2.685-5.94-5.917-1.612-3.083-2.457-5.469-4.446-8.226a18.956,18.956,0,0,1-3.906-9.231c-.707-6.151.958-14.494,5.823-18.737,2.235-1.947,6.324-3.524,9.327-2.765,4.8,1.212,6.462,5.314,9.834,8.8C72.737,137.356,76.4,143.394,78.924,150.241Z"/><path class="cls-1" d="M44.007,50.551c-8.514-2.623-14.471,2.349-18.164,9.654-1,1.971-3.045,1.216-3.29,3.486-.268,2.472-1.859,8.364-1.073,10.726,1.244,3.745,1.609,3.822,3.821,7.644-.065,5.244,2.117,14.978,4.76,19.444,2.085,3.521,1.411,5.667,2.146,9.653.886,4.813,1.341,3.219.536,8.315-.389,2.468-1.876,7.508-2.144,9.655s-.571,6.472-1.609,8.849c6.609-.7,20.29-2.329,27.348-1.877,3.355.215,4.44-5.383,7.782-4.827,2.984.5,3.562,4.338,3.16-.087-.3-3.332,1.27-9.74.863-15.735,3.487-5.967,1.878-17.165,6.034-26.15,1.623-3.5,1.869-8.438.2-11.731-2.071-4.088-3.071-8.828-6.236-12C65.384,62.8,61.5,60.4,59.294,57.254,56.189,52.828,49.23,52.159,44.007,50.551Z"/><path class="cls-1" d="M47.994,52.638c.2-1.987-6.136-9.921-7.815-11.223-2.846-2.207-5.161-1.516-8.681-1.694-2.681-4.023-5.555-7.019-8.892-7.516-4.234-.63-12.03-6.759-15.667-4.764-7.212,3.958-.647,20.638,6.325,25.2.661,3.385,2.355,8.043,5.632,9.654,1.282,6.72,2.427,5.648,5.1,7.777"/><path class="cls-1" d="M56.623,52.988c3.388,3.954,5.486,4.6,9.777,8.087,5.733-.1,4.215-.463,7.443.382,1.428.375,6.775,3.107,6.771,8.335,3.017-.076,8.247-1.61,9.253,5.363,5.383,3.3,14.749,5.364,12.469,11.129.725,5.309.666,7.075-2.145,8.583-2.518,1.351-7.277.049-10.469.326-6.528.566-11.367-1.57-16.752-4.685-2.023-1.169-4.693-2.413-7.039-3.821"/><path class="cls-1" d="M30.652,47.767a10.117,10.117,0,0,0,6.07,1.174c3.766-.628,7.7-3.143,8.894-5.632,1.426-2.972,2.662-6.5,4.07-9.609,3.527-.592,6.656,3.3,9.355,4.989,3.548,2.219,6.114,4.487,4.639,8.937C62.661,50.7,60.6,52.669,60.293,56.1c-.268,2.949.847,8.469,4.8,9.033"/><path class="cls-1" d="M69.6,43.884c-.871,2.047,1.958,2.189,2.9,2.189"/><path class="cls-2" d="M67.867,35.084a9.408,9.408,0,0,0,4.07,2.417c-.377.473-.463,1.41-.855,1.868-1.18-.732-4.915-4.921-6.834-2.959C63.779,35.235,66.453,33.493,67.867,35.084Z"/><path class="cls-2" d="M69.018,39.8c.34,1.355-1.808,1.764-1.865.389A.956.956,0,0,1,69.018,39.8Z"/><path class="cls-1" d="M44.569,36.827c1.959,6,.58,5.541-.073,8.822,3.774.812,6.965-3.952,7.182-11.081,1.558-1.071,3.639.438,4.209.847,1.442,1.039.322,4.367.58,5.577,1.015-5.153,3.482-7.482,6.095-8.258a20.253,20.253,0,0,1-2.974-5.5c-.245-1.116.615-2.986,1.74-3.176a6.629,6.629,0,0,1,5.948,1.34,11.7,11.7,0,0,0,7.4,2.753c1.161-5.647-6.608-8.975-8.56-9.528a35.917,35.917,0,0,0-7.691-1.34c-2.325-.073-4.9-.454-9,2.964A16.773,16.773,0,0,0,44.569,36.827Z"/><path class="cls-1" d="M55.64,38.788c.4-2.226.541-3.732-.261-4.643a3.185,3.185,0,0,0-3.546-.45c-1.029.615-1.535,3.392-1.611,4.434a7.951,7.951,0,0,0,1.091,4.615c.6.987,2.674,2.052,3.811.551"/><path class="cls-1" d="M52.307,35.079c1.7-1.4,2.289,2.12,2.208,3.545"/><path class="cls-1" d="M54.343,37c-.516-1.03-1.533,1.406-1.652,1.828a2.506,2.506,0,0,0,.708,2.595"/><path class="cls-1" d="M70.541,48.26a17.284,17.284,0,0,0-3.335-.07"/><path class="cls-1" d="M74.177,82.463c.416,2.374,3.183,6.849,5.383,7.86a12.985,12.985,0,0,0,8.257,1.482c2.258-.205,3.781,1.886,5.928,2.964a8.721,8.721,0,0,0,5.081.424"/><path class="cls-1" d="M96.286,85.242c-6.352,5.081-9.74-.636-7.761-8.678.4-1.627,4.237-5.948,5.22-7.307.741-3.494.062-11.1.106-12.28-2.964-2.541-2.334-4.341-2.117-6.564.409-4.189,7.622-4.4,10.4-.936,1.238,1.544.84,7.271,1.409,8.447A67.939,67.939,0,0,1,107.4,69.362c.747,5.023-.485,10.381-1.588,14.4-.388,1.417-2.21,5.475-2.964,6.14-.423-.424-.787-2.018-1.482-3.176"/><path class="cls-1" d="M39.967,54.4a43.209,43.209,0,0,0-4.234,9.879c-1.138,3.07-.269,6.025-.847,9.6-.94,5.827-.317,5.516-1.129,8.469-1,3.627-1.17,2.325-2.259,5.928-1.237,4.089-.867,3.371-1.27,7.622a14.632,14.632,0,0,0,.424,7.339c1.055,4.13,3.3,6.438,4.658,7.058"/><path class="cls-1" d="M48.86,47.978c4.829.994,5.294,4.407,6.917,7.834.8,1.681,3.232,3.864,3.952,4.8"/><path class="cls-1" d="M72.368,90.508c-2.817,1.006-3.8,1.939-5.566,5.365-1.115,2.165-2.564,3.061-5.379,7.083-3.345,4.777-7.191,7.665-12.422,8.469"/><path class="cls-1" d="M46.018,102.98c5.187,0,13.063-1.594,16.9-5.432"/><path class="cls-1" d="M25.147,72.327A21.213,21.213,0,0,0,24.7,84.273c.891,2.939,1.891,3.239,4.223,5.23"/><path class="cls-1" d="M36.23,91.313c2.437.916,8.04-3.515,9.242-5.648.817-1.448.422-6.024,2.117-8.469s7.581-1.587,9.528-2.329"/><path class="cls-1" d="M47.589,84.606c-.463,3.35.778,8.73,3.811,8.893,2.326.124,8.555-3.97,10.163-6.987"/><path class="cls-1" d="M34.886,150.241a89.481,89.481,0,0,0-1.482,14.82c-.008,7,2.587,7.754,2.117,12.915-5.364,2.54-13.557,7.213-14.185,17.785-1.316,4.113-6.012,10.4-12.7,17.573-1.919,2.06-7.41,1.906-7.622,5.5.1.971,1.812,3.15,4.235,6.987,2.541,4.022,3.232,9.891,4.023,10.8,2.751,3.156,11.916,2.174,12.915,1.27.655-2.359-.943-1.631-2.541-2.541a7.153,7.153,0,0,1-2.329-3.811c-.99-4.5.015-11.037,1.906-13.127,2.4-2.649,5.329-5.618,8.463-8.674,7.839-5.088,12.285-7.205,16.52-14.827,4.808-.93,9.316-6.563,10.8-13.762,1.061-3.09,5.293-7.622,6.351-13.55,1.38-5.651,1.486-6.262,1.694-13.55.212-7.411,2.445-18.635-.211-23.148-2.046-3.477-2.02-6.411-6.025-8.091-5.448-2.286-17.293-1-21.923,1.6-2.641,1.485-1.966,1.357-4.234,3.388-1.807,1.618-1.222,1.217-2.259,3.671C26.164,136.756,29.805,146.43,34.886,150.241Z"/><path class="cls-3" d="M32.628,118.764a37.311,37.311,0,0,1,7.339-1.692c2.541-.284,16.375,0,20.044,1.693s6,6.281,7.269,10.515c1.129,4.8,1.2,15.456-3.6,14.609,0-6.493-1.975-16.514-4.234-18.772s-11.292-1.553-13.832-.425-14.4,2.542-17.785,13.269C25.288,130.057,29.805,123,32.628,118.764Z"/><path class="cls-1" d="M73,154.263c3.064-.623,8.469,5.293,10.8,11.214.738,1.874,1.637,4.623,1.06,6.571-1,3.386-2.753,4.235-6.564,2.752"/><path class="cls-1" d="M31.393,39.933c-2.21.276-4.543-1.271-7.093-1.059s-5.535,1.962-5.346-2.964c.053-1.376,2.419-3.774,3.017-2.329"/><path class="cls-1" d="M33.192,67.385c-.417,2.3-.235,5.681-2.329,5.577-2.157-.107-4.484-3.061-5.5-4.87-.669-1.184.1-4.436-.847-5.5-1.438-1.617-2.839-2.169-2.541-4.658.635-5.293,1.27-4.022,1.588-8.045"/><path class="cls-1" d="M63.469,62.164c-.2-.07-.306.458-.4.061a29.011,29.011,0,0,1,5.478-1.331"/><path class="cls-1" d="M79.983,73.173c3.176-.635,7.706,3.2,5.717,6.987-1.222,2.33-4.023,2.118-5.929.212"/><path class="cls-1" d="M13.925,55.389c-.754-1.635-1.267-7.137-.211-9.74.72-1.778,2.562-1.1,4.022-1.27"/><path class="cls-1" d="M7.574,46.285c-2.138-1.85-3.993-6.83-4.87-9.74-.814-2.7-1.858-9.456.678-11.38,1.3-.985,2.075-.9,3.721-2.392,1.034-.937,1.551-2.413,2.429-3.548,1.732-2.238,8.744-4.784,10.745-6.816a13.827,13.827,0,0,1,8.787-3.7A51.028,51.028,0,0,1,41.026,10.08c1.755.45,1.27,2.678,1.165,4.658-.081,1.5-1.506,3.047-2.647,4.023-.919.786-3.786,2.129-5.5,1.588-1.588-.5-2.873-3.1-3.811-2.647-6.563,2.329-6.5,5.232-7.41,7.834,1.058,1.694.744,5.964-.212,6.669-5.822-1.482-12.773,2.93-17.22-.67"/><path class="cls-4" d="M39.547,14.524c2.135,1.505-.064,4.554-1.791,5.3-1.438.618-4.257.68-5.071-.98-.842-1.715.135-2.913,1.564-3.761C35.636,14.258,38.1,13.5,39.547,14.524Z"/><path class="cls-1" d="M26.205,18.337c3.6-1.27,3.362,2.084,5.082,2.964.943.483,1.988.248,3.176.212s2.519.126,3.523.065c1.322-.082,2.934.218,2.3-2.076-.243-.876-3.176-2.118-5.4-1.482-1.616-.257-2.835-2.167-3.176-2.118"/><path class="cls-1" d="M37.638,11.033c.8.415,2.649.89,3.34,1.635.647.7.9,2.336,1.483,3.175,1.455,2.1.953,2.436-.482,5.67-.442,1-.316,2.5-1.588,2.117-1.953-.588-1.376-2.329-.318-2.752A4.819,4.819,0,0,0,40.5,17.7c-.581-1.346-2.521-1.839-4.959-2.081.281-.053-.938-.009-.652-.036"/><path class="cls-1" d="M36.156,12.2c.8.416,2.861.361,3.552,1.106.646.7.9,2.336,1.483,3.176,1.455,2.1.47,3.764-.8,5.034-.77.77-.951,2.395-2.223,2.011-1.953-.588-1.588-1.588-.53-2.011.4-.873,1.2-2.262.847-3.07-.58-1.346-1.373-2.405-3.811-2.646.282-.053-1.768-.079-1.482-.106"/><path class="cls-1" d="M93.851,52a4.509,4.509,0,0,0,.212,4.764c-3-.179-3.123.153-5.293-2.117-2-2.094-2.2-2.6-.953-5.4,1.005-2.25-1.217-2.819-.212-4.658.588-1.076,3.2-1.069,5.293-1.482s2.094-1.456,3.494-1.059a10.893,10.893,0,0,1,5.5,5.717,25.514,25.514,0,0,1,1.377,8.574"/><path class="cls-1" d="M102.637,59.623c-.423,6.564.669,6.975,1.482,9.739,1.059,3.6,2.329,6.881.424,10.375"/><path class="cls-1" d="M93.957,68.3c0,1.868-.156,4.041.953,5.5"/><path class="cls-1" d="M71.021,102.956c-1.271,2.117-3.388,2.823-4.093,5.363-.333,1.2-.85,4.262-1.554,6.212-.761,2.113-1.84,3.059-1.694,4.234"/><path class="cls-1" d="M61.775,103.238c-.96,3.45-2.329,10.586,0,15.456"/><path class="cls-1" d="M64.669,99.287c.163-.214,2.754,4.2,2.611,5.645"/><path class="cls-1" d="M68.127,94.769c-.054-.12,1.27.847,2.117,3.811"/><path class="cls-1" d="M34.886,115.306c1.946-2.18,11.69-1,14.4-.211"/><path class="cls-1" d="M23.03,25.959c-1.271-2.752-3.94-2.944-5.082-.635"/><path class="cls-1" d="M38.557,152.5c1.71,2.414,3.589,8.472,3.739,11.5.248,5.041-1.018,8.6-2.329,13.338"/><path class="cls-1" d="M44.484,184.258c1.977,1.411,5.223-.154,6.493-1.13,3.67-2.823,3.014-5.965,3.953-8.186,1.044-2.471,1.951-4.886,4.516-7.34"/><path class="cls-1" d="M47.308,175.789c-1.936,2.711-2.515,7.135-3.388,10.726-1.037,4.264-2.293,7.605-3.953,9.034"/><path class="cls-1" d="M59.869,129.068c-1.131,6.224-1.887,12.617-6.351,17.785"/><path class="cls-1" d="M36.792,184.328c.958,2.56-2.72,7.551-4.447,9.528-2.891,3.312-6.351,4.234-9.951,8.468"/><path class="cls-1" d="M62.41,167.814c2.7,1.163,4.041,4.189,5.505,6.775a26.77,26.77,0,0,1,2.117,6.775c1.137,5.671,5.081,5.928,7.622,6.563"/><path class="cls-1" d="M73.42,161.039c-.847,6.139-.847,9.315,1.66,13.179-1.449,8.84,2.523,8.459,5.327,10.322"/><path class="cls-1" d="M84.853,190.468c-2.118,2.752-4.908,3.607-6.14,4.446"/><path class="cls-1" d="M72.784,189.409c.73,1.924-.149,5.37-.893,7.153-2.494,5.974-7.364,5.127-8.634,11.479"/><path class="cls-1" d="M13.29,212.7c-1.693,2.541-3.645,4-3.6,6.352.029,1.529,2.413,2.014,4.023,2.117"/><path class="cls-1" d="M62.834,224.344c-.01,1.641-.937,4.86-.217,6.357.548,1.138,2.762,1.533,3.816,1.9"/><path class="cls-1" d="M83.476,236.2c2.965.424,4.447,2.223,3.706,3.388-1.879.734-3.758,1.037-4.976-.424"/><path class="cls-1" d="M16.89,209.735c.977-1.689,5.1-2.866,6.775-3.6A16.3,16.3,0,0,0,30.652,200"/><path class="cls-1" d="M69.609,205.289c.363,2.737-3.336,5.521-4.552,7.833a37.464,37.464,0,0,0-2.118,7.517"/><path class="cls-1" d="M20.6,235.671c1.977.427,5.851.41,3.176,2.964-.689.656-4.67.076-4.552-.953"/><path class="cls-1" d="M19.219,236.624c1.27.847,4.118,1.125,2.858,2.329-.689.656-4.352.711-4.235-.318"/><path class="cls-1" d="M17.313,237.365c1.145.247,4.119,1.125,2.858,2.329-.688.656-4.351.711-4.234-.318"/><path class="cls-1" d="M15.831,237.153c1.376,1.588,2.954,1.655,1.694,2.858-.689.657-3.187.182-3.07-.847"/><path class="cls-1" d="M12.443,236.624c1.145.247,4.119,1.866,2.859,3.07-.689.656-2.647-.847-3.917-1.588"/><path class="cls-1" d="M35.169,112.554c1.694-1.129,4.265-.282,6.069-.282"/><path class="cls-1" d="M15.09,34.957c1.534.708,3.348,2.271,3.6,4.129.2,1.442-1.492,2.692-2.648,3.149a5.7,5.7,0,0,1-5.009-.113c-2.7-1.259-2.258-4.658-.847-6.635"/><path class="cls-1" d="M27.687,43c-2.54-2.858-9.209-4.592-9.739,1.164A6.378,6.378,0,0,0,20.384,50.1c1.375,1.164,1.587,1.164,3.281,1.058,0-2.435,3.176-4.022,6.563-3.6C28.323,46.285,28.757,44.206,27.687,43Z"/><path class="cls-1" d="M81.465,69.574c-2.541,1.059-5.082,2.541-4.87,3.388"/><path class="cls-1" d="M58.69,84.273c2.357,1.821,10.435-.258,13.274-1.006,3.583-.942,6.493-3.606,6.96-7.341.424-3.388-2.964-6.352-6.14-7.622-1.4-.559-5.009-.662-6.2.365-2.271,1.964-.3,3.568-.154,3.446"/><path class="cls-1" d="M81.042,236.624c2.752.847,4.825,1.364,4.409,3.562-1.463.733-3.461.651-4.409-.81"/><path class="cls-1" d="M79.136,236.835c2.541,1.482,4.545,1.4,4.129,3.6-1.463.733-4.133.4-5.082-1.059"/><path class="cls-1" d="M68.232,238.212c1.588-.117,2.26-.791,3.6,0a19.458,19.458,0,0,0,4.287,2.276c1.247.356,4.484,1.262,3.758-.689-.35-.942-3.09-1.831-3.917-2.328"/><path class="cls-1" d="M55.494,126.386c-3.763,3.046-4.946,10.493-4.8,14.962"/><path class="cls-5" d="M41.194,30.671c.252-5.153,4.841-20.316,22.221-20.4S85.159,25.2,84.842,31.068s-5.46,19.284-21.816,19.681S40.8,38.766,41.194,30.671Z"/><path class="cls-6" d="M69.116,12.894s1.52-8.73,12.71-11.587"/><path class="cls-7" d="M73.431,5.7s-3.93.847-4.315-1.057,2-3.572,3.425-3.334S74.136,5.08,74.136,5.08,77.6,4.907,77.62,6.466c.029,1.905-.806,2.778-2.149,2.936S73.114,8.56,73.431,5.7Z"/><path class="cls-6" d="M57.3,14.085S56.193,5.553,45.771,1.623"/><path class="cls-7" d="M52.212,5.424s3.93.847,4.315-1.058S54.531.8,53.1,1.033s-1.6,3.772-1.6,3.772-3.46-.172-3.484,1.387c-.028,1.9.806,2.777,2.149,2.936S52.53,8.286,52.212,5.424Z"/><path class="cls-6" d="M52.939,19.481s3.095-4.841,5.873-1.19"/><path class="cls-6" d="M67.3,18.2s3.467-3.724,6.059.959"/><circle class="cls-8" cx="55.518" cy="24.957" r="1.786"/><circle class="cls-4" cx="55.238" cy="24.522" r="0.716"/><circle class="cls-8" cx="70.571" cy="24.957" r="1.786"/><circle class="cls-4" cx="70.294" cy="24.525" r="0.716"/><ellipse class="cls-9" cx="51.153" cy="29.163" rx="2.951" ry="1.627"/><ellipse class="cls-9" cx="75.308" cy="29.163" rx="2.951" ry="1.627"/><path class="cls-6" d="M68.573,29.163s1.389,2.619-.952,3.571-4.246-1.627-4.246-3.571c0,1.944-1.905,4.524-4.246,3.571s-.952-3.571-.952-3.571"/><path class="cls-10" d="M68.87,90.781A100.872,100.872,0,0,1,48.079,86.3c-.031,0-.063,0-.095,0a3.293,3.293,0,0,1-1.848-.652,131.907,131.907,0,0,1-25.393-12,1.014,1.014,0,0,1-.484-.853,17.333,17.333,0,0,1,.121-2.064,1.009,1.009,0,0,1,.355-.662c.991-9.176,3.908-16.767,8.675-22.574a26.918,26.918,0,0,1,9.51-7.578,1.015,1.015,0,0,1,.93.058,9.394,9.394,0,0,1,.948.646,8.171,8.171,0,0,1,.726.661,1.011,1.011,0,0,1,.034,1.393,1.846,1.846,0,0,1-.742.5c-.137.051-14.4,5.707-16.469,28.281a128.638,128.638,0,0,0,21.978,10.3c3.307-13.139,10.368-20.04,14.351-23.016a1.01,1.01,0,0,1,1.313.089c.4.4.824.78,1.255,1.16a1.01,1.01,0,0,1-.065,1.571c-2.986,2.21-10.151,8.66-13.3,21.391a97.6,97.6,0,0,0,18.419,4,1,1,0,0,1,.362.112c.575.308,1.148.608,1.712.9a1.009,1.009,0,0,1,.542.835,1.958,1.958,0,0,1,0,.306,1.865,1.865,0,0,1-1.858,1.683C69.024,90.79,68.9,90.784,68.87,90.781Z"/><path class="cls-2" d="M39.33,40.837a8.53,8.53,0,0,1,.849.578,7.272,7.272,0,0,1,.63.577.845.845,0,0,1-.337.23C40.291,42.288,25.206,48.1,23.286,72a128.824,128.824,0,0,0,23.76,11.08C50.217,69.266,57.692,62.232,61.281,59.55c.415.409.85.807,1.3,1.2-3.232,2.393-10.807,9.269-13.893,22.878a98.974,98.974,0,0,0,19.5,4.328c.578.31,1.154.612,1.721.907a.8.8,0,0,1,0,.147.858.858,0,0,1-.852.771c-.029,0-.059,0-.089,0a99.962,99.962,0,0,1-20.821-4.521.276.276,0,0,1-.163.034c-.366,0-1.173-.233-1.231-.5A130.8,130.8,0,0,1,21.269,72.782a16.59,16.59,0,0,1,.115-1.943l.271.169c2.076-22.049,14.8-28.9,17.675-30.171m0-2.021a2.021,2.021,0,0,0-.819.173,27.959,27.959,0,0,0-9.882,7.861c-4.837,5.891-7.816,13.55-8.863,22.777a2.02,2.02,0,0,0-.391.99,18.34,18.34,0,0,0-.126,2.183,2.021,2.021,0,0,0,.967,1.706,133.02,133.02,0,0,0,25.41,12.033,4.193,4.193,0,0,0,2.3.769,101.753,101.753,0,0,0,20.835,4.477,2.837,2.837,0,0,0,.294.015,2.872,2.872,0,0,0,2.863-2.585,2.927,2.927,0,0,0,.005-.5,2.022,2.022,0,0,0-1.082-1.649c-.56-.292-1.13-.591-1.7-.9a2.024,2.024,0,0,0-.726-.227A95.91,95.91,0,0,1,51.1,82.274c3.175-11.8,9.856-17.81,12.68-19.9a2.02,2.02,0,0,0,.131-3.142c-.465-.409-.862-.776-1.212-1.121a2.021,2.021,0,0,0-2.628-.179c-3.981,2.975-10.952,9.757-14.443,22.5a128.031,128.031,0,0,1-20.213-9.525C27.6,49.6,40.622,44.33,41.186,44.112a2.856,2.856,0,0,0,1.115-.757,2.021,2.021,0,0,0-.063-2.792,8.912,8.912,0,0,0-.821-.745,10.4,10.4,0,0,0-1.046-.713,2.019,2.019,0,0,0-1.041-.289Z"/></svg>