<svg id="レイヤー_1" data-name="レイヤー 1" xmlns="http://www.w3.org/2000/svg" viewBox="0 0 293.768 589.749"><defs><style>.cls-1{fill:#f2a8bf;}.cls-2{fill:#fdfcfd;}.cls-3{fill:#f90405;}.cls-4{fill:#fcfbfb;}.cls-5{fill:#f9e9da;}.cls-6{fill:#9d464d;}.cls-7{fill:#f9f2b8;}.cls-8{fill:#e6e5e5;}.cls-9{fill:#bf8496;}.cls-10{fill:#be8496;}.cls-11{fill:#f8dac7;}.cls-12{fill:#f3a7bf;}.cls-13{fill:#5d5d5f;}</style></defs><path class="cls-1" d="M124.044,238.669c-.6-1.461-.265-3.028-.327-4.549.8-3.532,1.1-7.206-.292-10.511-2.7-6.4-3.386-13.081-3.687-19.877,1.088-1.353.49-2.935.576-4.416a35.167,35.167,0,0,1,1.517-9.94c3.6-1.92,7.2-3.855,10.809-5.752,1.705-.894,2.4-.212,2.286,1.585-.066,1.042-.122,2.085-.183,3.127.892,2.007.521,4.308,1.521,6.311.6,1.209.98,2.529,2.23,3.445.294-.867.5-1.643.812-2.375,1.436-3.38,4.207-4.629,7.6-3.407,2.728.982,5.434,2.023,8.153,3.028a2.536,2.536,0,0,0,.657.007c.21-1.744-.918-2.967-1.771-4.241a96.823,96.823,0,0,1-5.395-8.3,10.907,10.907,0,0,1-1.5-5.536c.068-1.954.23-3.671,2.98-3.634,1.826.025,2.8-1.434,3.215-3.129.611-2.5,1.161-5.016,1.736-7.526,1.5.89,1.588-1.326,2.935-1.223.259,1.836.533,3.717.79,5.6.667,4.891,3.376,8.027,8.048,9.592,3.159,1.058,3.176,1.225,1.662,4.241-1.124,2.237-2.329,4.438-3.349,6.722-.676,1.515-1.533,3.183.068,4.687a5.474,5.474,0,0,0,5.8,1.372c1.983-.637,3.319-2.251,5.107-3.162.484,5.44-2.473,9.541-5.466,13.545-.964,1.289-1.055,1.955-.015,3.218,2.5,3.044,2.37,4.407-.232,7.362-.265.3-.74.637-.723.935.169,3.036.467,6.271,2,8.748,1.174,1.9,3.791,2.5,6.535,1.768a60.1,60.1,0,0,1,23.738-1.509c3.124,3.986,6.3,7.933,9.36,11.965q7,9.216,13.854,18.537a62.447,62.447,0,0,1,7,11.342c-2.737.839-3.683,2.985-3.826,5.549a3.748,3.748,0,0,1-1.611,2.871c-2.377,2.148-5.041,2.676-8.066,3.147-7.909,1.233-12.859,6.549-16.7,13.137-3.082,5.287-4.369,11.259-6.483,16.913-3.9,10.421-7.435,20.988-12.915,30.746a66.974,66.974,0,0,1-10.766,14.83c-.544.545-1.346.977-1.272,1.948-2.123-.125-4.311,1.272-6.375-.271.214-2.381-.283-4.781.193-7.155.452,1.342,1.068.949,1.951.321,4.841-3.44,8.332-8.051,11.323-13.064,5.932-9.942,9.458-20.8,11.916-32.04a30.541,30.541,0,0,0,.7-4.779,7.668,7.668,0,0,1,4.255-6.854c3.148-1.634,4.005-4.619,4.908-7.676a11.343,11.343,0,0,1,5.414-6.5c4.644-2.793,9.878-3.307,15.088-3.938.833-.1,2.342.5,2.219-.978a2.671,2.671,0,0,0-2.362-2.407c-9.224-1.413-19.169,3.442-23.36,11.825-1.675,3.35-3.4,6.34-7.055,7.816-2.561,1.034-2.87,3.48-3.3,5.805a171.753,171.753,0,0,1-5.49,21.571,94.425,94.425,0,0,1-6.209,14.927c-1.721,3.266-3.634,6.486-6.659,8.83a3.861,3.861,0,0,1-2.1,1.092c.4-3.207,2.367-5.716,3.8-8.458,1.619-3.1,2.778-6.263,1.722-9.824a11.041,11.041,0,0,0-.154-2.37c-.991-3.474-3.574-4.464-6.75-2.5A34.614,34.614,0,0,0,152.8,330.326q-5.22,8.295-10.4,16.612a28.673,28.673,0,0,1-4.869,5.678c-3.3,3.106-7.528,2.869-10.294-.7a11.476,11.476,0,0,1-2.581-5.657c7.844-.832,11.957-6.642,16.336-12.156,4.588-5.78,8.352-12.278,14.5-16.72,3.37-2.437,6.924-4.419,11.189-4.614,1.728-.08,1.73-.754.905-1.923a3.072,3.072,0,0,0-3.574-1.255c-7.855,1.711-13.92,6.139-18.835,12.288-3.619,4.528-6.969,9.276-10.692,13.714-2.751,3.278-5.96,6.143-10.292,7.3.156-4.095,1.956-7.609,3.95-11.041a59.985,59.985,0,0,1,10.506-13.238c5.471-5.215,4.5-11.279.271-16.086-13.57-15.429-34.494-18.6-51.958-7.717a39.979,39.979,0,0,0-13.972,14.831,12.068,12.068,0,0,0-.793,2.755c-1.5,10.455.658,19.854,7.949,27.809a75.875,75.875,0,0,1,7.465,8.873,19.718,19.718,0,0,1,3.232,7.745l-.063.544c-7.632,1.984-14.036-.547-19.561-5.634-5.981-5.507-10.2-12.472-15.061-18.9C52.4,327.867,48.557,323,43.262,319.505c-2.459-1.622-4.342-1.7-6.119.046-.475.466-1.059,1-.02,1.456,8.96,3.946,14.169,11.664,19.529,19.27,2.836,4.026,5.435,8.217,8.537,12.061,5.762,7.14,12.688,11.414,22.285,9.467-4.457,6.282-12.026,7.669-18.517,3.544a54.664,54.664,0,0,1-20.028-23.021c-1.948-4.019-3.778-8.252-7.857-10.775a13.474,13.474,0,0,0-4.16-4.331c-1.876-1.28-2.97-.868-3.5,1.334-1.016,4.245-.5,8.513-.009,12.771.093.8.159,1.607.238,2.41-2.017.354-3.367-1.038-4.73-2.044a75.505,75.505,0,0,1-13.626-13.586c-2.875-3.553-5.783-7.079-8.677-10.617a103.894,103.894,0,0,1,15.128-14.974c13.383-11.179,28.3-20.109,43.321-28.849,9.634-5.6,19.36-11.05,28.926-16.767a21.33,21.33,0,0,1,7.8-2.994c5.094-.793,10.3-.968,15.221-2.744a6.411,6.411,0,0,0,4.287-3.912C124.262,245.048,125.544,242.324,124.044,238.669ZM90.481,289.005c8.25-4.34,16.838-7.062,26.3-4.427a27.15,27.15,0,0,1,11.284,5.89c2.16,1.977,4.948,1.795,7.391,2.736,2.126.82,4.014,2.077,6.14,2.846.419.152.795.708,1.272.208.322-.337.011-.758-.012-1.145-.22-3.789-2.809-5.577-5.968-6.423a26,26,0,0,1-8.206-3.853,28.609,28.609,0,0,0-14.139-4.6c-12.252-.98-22.9,2.913-32.239,10.676-1.517,1.261-3.256,2.521-3.251,4.866l-.141.123.134-.13C82.851,293.5,86.566,291.065,90.481,289.005Z"/><path class="cls-2" d="M171.014,324.109a11.041,11.041,0,0,0-.154-2.37c-.991-3.474-3.574-4.464-6.75-2.5A34.614,34.614,0,0,0,152.8,330.326q-5.22,8.295-10.4,16.612a28.673,28.673,0,0,1-4.869,5.678c-3.3,3.106-7.528,2.869-10.294-.7a11.466,11.466,0,0,1-2.58-5.657,6.194,6.194,0,0,1-.468-3.362c.156-4.095,1.956-7.609,3.95-11.041a59.985,59.985,0,0,1,10.506-13.238c5.471-5.215,4.5-11.279.271-16.086-13.57-15.429-34.494-18.6-51.958-7.717a39.979,39.979,0,0,0-13.972,14.831,12.021,12.021,0,0,0-.792,2.754,43.808,43.808,0,0,1,1,5.911c.258,7,4.787,12.049,11.708,12.944a80.7,80.7,0,0,0,10.655.353c2.14-.006,3.094,1.181,3.343,3.067a11.58,11.58,0,0,1-.126,2.9c-.307,2.466.766,3.993,3.027,4.892.584.233,1.416.124,1.878.93a40.409,40.409,0,0,0-6.545,5.5c-.68.738-1.649,1.454-.985,2.716,2.455,3.067,3.04,6.68,2.734,10.42a37.258,37.258,0,0,0,.171,10.151c.935,4.868,3.348,8.512,8.341,10.059,2.006.622,3.92,1.549,5.938,2.12,1.72.486,2.182,1.435,2.185,3.152.022,15.37.2,30.728-.8,46.093-1.033,15.814-1.467,31.666-2.206,47.5-.565,12.116-1.124,24.234-1.845,36.342-.2,3.4.806,6.729.274,10.113a4.651,4.651,0,0,0,5.582-1.443,25.528,25.528,0,0,1,7.419-6.136c2.741-1.455,3.237-1.331,4.832,1.336.805,1.346,1.467,2.778,2.431,4.625a69.134,69.134,0,0,0,1.157-16.436,2,2,0,0,1-.314-1.777,1.232,1.232,0,0,0,.138-.408c-.545-6.229.049-12.443.47-18.638,1.338-19.693,4.476-39.181,6.9-58.751a283.4,283.4,0,0,0,2.526-32.379c.019-2.283.69-2.152,2.493-1.524,18.054,6.291,34.586,15.62,51,25.219,5.3,3.1,10.858,5.751,16.292,8.62.485.256,1.09.364,1.355.945,1.328.239,1.161-.76,1.239-1.525.2-1.928.3-3.869.578-5.784.7-4.774,3.8-6.582,8.193-4.9.939.359,1.74,1.17,3.14.975-1.847-4.58-4.4-8.415-8.564-11.036-11.087-2.538-20.087-9-29.083-15.467C176.785,384.5,165.062,375.6,151.669,369.3c-1.339-.63-1.443-1.207-.408-2.28,2.069-2.143,4.409-4.066,5.9-6.712.453-.806,1.31-1.7.695-2.645-.581-.893-1.64-.293-2.489-.241a10.486,10.486,0,0,1-3.848-.154c-2.466-1.652-3.945-4.34-6.364-6.047-1.037-.733-.927-1.5,0-2.33,2.921-2.616,5.808-5.269,8.708-7.908,1.406-1.672,2.568-3.558,4.323-4.923a16.681,16.681,0,0,0,.446-1.623c.928-5.371,1.492-5.852,6.83-5.758C168.909,328.741,170.507,327.427,171.014,324.109Z"/><path class="cls-2" d="M154.979,162.984c1.5.89,1.588-1.326,2.935-1.223.259,1.836.533,3.717.79,5.6.667,4.891,3.376,8.027,8.048,9.592,3.159,1.058,3.176,1.225,1.662,4.241-1.124,2.237-2.329,4.438-3.349,6.722-.676,1.515-1.533,3.183.068,4.687a5.474,5.474,0,0,0,5.8,1.372c1.983-.637,3.319-2.251,5.108-3.162q1.077-1.41,2.152-2.821c-3.439-.158-3.535-.258-3.508-3.647.033-3.944,0-3.916-2.692-7.142-2.05-2.456-2.52-5.536-3.128-8.54-.618-3.052-1.365-3.263,2.529-3.762,3.769-.482,7.595-1.817,11.18.937a1.722,1.722,0,0,0,2.733-1.045c1.043-4.33,4.235-6.2,8.045-7.528,1.188-.414,1.8-.328,2.487.912a38.429,38.429,0,0,1,3.334,8.8c.551,2.033,1.388,3.661,3.552,4.5,1.781.686,1.989,1.894.5,3.323a28.059,28.059,0,0,0-4.252,4.629c-.884,1.334-1.8,1.257-2.9.077-1.929-2.065-3.969-4.03-6-6-.662-.641-1.213-1.77-2.355-1.356-1.262.457-1.657,1.645-1.838,2.911a37.338,37.338,0,0,0,.078,7.952c.3,4.273.416,4.264-3.307,5.311-.072.02-.128.1-.191.146.624.813,1.315,1.557,1.905,2.418,3.043,4.443,7.236,5.957,11.134,4.119,1.77-.835,2.965-2.425,4.44-3.649q2.745-3.7,5.488-7.394a3.018,3.018,0,0,1,1.987-1.256,12.645,12.645,0,0,0,6.347-2.834c1.024-.9,1.965-.351,2.934-.019,7.727,2.642,15.429,5.377,23.475,6.925,3.82.735,7.678,1.239,11.541.243a10.829,10.829,0,0,0,2.478-.946c1.929-1.059,3.572-2.646,3.624-4.84.047-2.024-2.125-2.676-3.645-3.473-5.034-2.642-10.541-4.1-15.812-6.155a19.491,19.491,0,0,1-4.909-2.489c2.494-.172,4.985-.439,7.482-.5,6.066-.142,12.137-.179,18.086-1.6,3.884-.926,7.321-2.61,9.643-6.027,2.391-3.518,1.763-5.52-2.2-7.02a48.108,48.108,0,0,0-10.374-2.39c-7.922-1.117-15.854-2.168-23.78-3.255-.464-.064-.988-.006-1.38-.518,3.992-.7,7.982-1.234,11.891-2.121,9.03-2.051,17.893-4.637,25.291-10.563,4.13-3.309,6.653-7.444,5.629-13.078-.395-2.171-1.388-3.208-3.741-3.142-4.675.131-9.075,1.529-13.548,2.6-4.142,1-8.2,2.348-12.62,3.01.19-1.443,1.276-1.827,2.011-2.446,5.621-4.734,11.864-8.736,16.727-14.36,3.756-4.343,5.988-9.192,5.282-15.089-.413-3.452-1.6-4.438-5.09-4.053a32.3,32.3,0,0,0-9.06,2.6c-8.746,3.711-16.776,8.73-24.855,13.658-.744.454-1.506.878-2.642,1.539a60.269,60.269,0,0,0,2.179-8.017,17.7,17.7,0,0,0-.178-6.977c-.754-2.882-1.694-3.581-4.64-3.241-3.74.432-6.892,2.238-9.852,4.413-7.674,5.637-13.987,12.715-20.563,19.513-4.1,4.245-8.183,8.519-12.569,12.481a4.854,4.854,0,0,1-2.48,1.4,21.453,21.453,0,0,0-10.892,4.969c-1.225,1.085-1.66.829-1.818-.776-.292-2.974-.871-5.922-1.09-8.9-.152-2.085-.9-2.616-2.735-1.692a9.455,9.455,0,0,0-.866.843c-1.4,1.752-2.651,3.794-5.425,2.045a1.73,1.73,0,0,0-1.612.172c-1.4,1.267-3.282,1.3-4.846,2.084-1.147.577-2.594,1.1-3.2,2.082-1.105,1.781-2.628,2.214-4.435,2.4-1.824,1.166-3.834,2.036-5.346,3.689-.908.993-1.12,1.582.271,2.342,1.465.8,3.007,1.626,3.8,3.241,1.024,2.082.384,3.154-1.891,3.173a17.68,17.68,0,0,0-5.484.716,20.667,20.667,0,0,1-2.9,8.192c3.036.156,5.424-1.295,7.644-3.124a45.426,45.426,0,0,1,7.825-5.625,10.1,10.1,0,0,1,7.714-1.039c3.256.947,4.518,2.43,4.6,5.791C157.542,152.139,156.3,157.57,154.979,162.984Z"/><path class="cls-2" d="M232.082,266.724c-2.738.839-3.684,2.985-3.827,5.549a3.748,3.748,0,0,1-1.611,2.871c-2.377,2.148-5.041,2.676-8.066,3.147-7.909,1.233-12.859,6.549-16.7,13.137-3.082,5.287-4.369,11.259-6.483,16.913-3.9,10.421-7.435,20.988-12.915,30.746a66.974,66.974,0,0,1-10.766,14.83c-.544.545-1.346.977-1.272,1.948,3.068.933,6.086,2.316,9.317.4,1-.591,1.806.416,2.616.861,4.676,2.568,9.559,4.363,15,3.868,6.808-.619,11.86-4.367,16.012-9.456,1.225-1.5,2.029-1.9,3.878-.846,5.592,3.192,9.846,2.154,13.714-2.951a44.343,44.343,0,0,0,4.14-6.822c-1.515-1.068-3.679-.251-5.049-1.738a11.973,11.973,0,0,1-4.683-6c-3.378-7.9-2.257-15.37,2.631-22.249a34.159,34.159,0,0,0,6.552-20.879c.059-3.513-1.912-6.194-4.29-9.374a25.931,25.931,0,0,0,3.912,1.6c1.234.263,2.224,1.762,3.708.793a8.673,8.673,0,0,0-4.69-7.277,8.435,8.435,0,0,0,4.061-4.43c1.2-2.8,1.316-2.855,3.717-1.026a30.42,30.42,0,0,1,5.029,5.5,3.184,3.184,0,0,0,3.738.865c1.406-.454.39-1.647.364-2.508a12.4,12.4,0,0,1,.318-4.317c1.131-3.487,1.138-3.5,4.215-1.5.4.263.818.515,1.239.752,1.689.95,4.222.982,4.169,3.838,0,.039.292.083.447.125,2.607-1.616,3.437-3.91,1.5-5.034-2.463-1.431-4.919-2.921-7.447-4.259-.067-.035-.165,0-.236-.035-2.994-1.244-6.181.511-9.183-.591-2.332-.114-4.808-1.009-6.673,1.311A6.283,6.283,0,0,1,232.082,266.724Z"/><path class="cls-3" d="M132.042,507.733a1.265,1.265,0,0,0,.139-.411,25.661,25.661,0,0,1,6.449.652A16.322,16.322,0,0,1,150.1,531.262,94.592,94.592,0,0,0,139.478,570.2a7.279,7.279,0,0,0-.226,2.9c-1.5,8.041-7.852,11.286-14.3,14.4a22.863,22.863,0,0,1-9.328,2.236,12.842,12.842,0,0,1-13.4-13.254c.025-1.131.1-2.26.152-3.39q.35-.882.7-1.763a19.532,19.532,0,0,1,1.94-4.375c1.6-2.776,3.254-5.561,3.774-8.82a2.277,2.277,0,0,0-.924-2.557c-.956-.534-1.43.3-1.77,1.082-.207.478-.545.916-1.08.745-.516-.165-.509-.786-.574-1.248a15.482,15.482,0,0,1,.075-5.309,43.347,43.347,0,0,1,2.39-8.33c.222-.516.524-1.154.046-1.585-.524-.471-1.046.1-1.5.36-1.107.644-2.171,1.362-3.269,2.022-1.789,1.077-2.949.294-3.546-1.416a27.4,27.4,0,0,1-1.931-11.118c.332-4.5,1.651-5.321,6.028-4.717,2.766.383,5.285,2.043,8.2,1.494a4.651,4.651,0,0,0,5.582-1.443,25.528,25.528,0,0,1,7.419-6.136c2.741-1.455,3.237-1.331,4.832,1.336.805,1.346,1.467,2.778,2.431,4.625a69.134,69.134,0,0,0,1.157-16.436C132.485,508.876,132.645,508.238,132.042,507.733Zm-18.712,47.78a12.672,12.672,0,0,0,6.256-2.928,1.891,1.891,0,0,0,.62-2.15,23.714,23.714,0,0,0-4.244-9.1,2.114,2.114,0,0,0-2.188-1.1c-1.107.172-1.428.768-1.726,1.68a32.33,32.33,0,0,0-2,10.138C109.916,555.794,110.091,555.994,113.33,555.513Zm6.93-16.876c1.547,2.14,3.106,4.271,4.748,6.522,1.4-1.545,1.84-3.516,2.607-5.31.446-1.043-.256-1.45-1.1-1.73a12,12,0,0,0-6.636-.352A5.426,5.426,0,0,0,120.26,538.637Z"/><path class="cls-3" d="M228.062,407.507c7.243,1.866,12.647,6.511,17.185,12.238a8.094,8.094,0,0,1,1.9,4.329c.27,3.382.623,6.764.734,10.152a26.332,26.332,0,0,0,3.427,11.963,50.131,50.131,0,0,1,5.824,20.261c.481,5.759-1.9,10.181-5.677,14-6.586,6.665-17.106,3.631-21.26-2.631-2.686-4.049-3.137-8.74-3.466-13.406a63.043,63.043,0,0,0-1.751-10.242,7.578,7.578,0,0,0-2.579-3.707c-1.054-.984-1.86-.756-2.382.527-.412,1.012-.573,2.171-2.026,2.84.058-4.192.015-8.225-2.37-11.975-2.462,4.619-5.049,6.371-8.336,5.859-4.079-.636-9.529-6.867-9.708-11.038a2.276,2.276,0,0,1,1.594-2.605c2.621-1.029,5.26-.637,7.884-.314,1.283.158,2.475.281,3.333-.781a14.936,14.936,0,0,1,2.829-2.166c1.328.239,1.161-.76,1.239-1.525.2-1.928.3-3.869.578-5.784.7-4.774,3.8-6.582,8.193-4.9.939.359,1.74,1.17,3.14.975-1.847-4.58-4.4-8.415-8.564-11.036C221.036,406.376,224.612,406.618,228.062,407.507Zm5.924,34.354c-.275-.769-.78-.917-1.408-1.09a40.46,40.46,0,0,1-7.719-2.736c-1.761-.9-3.06.5-4.362,1.273-.715.426.143,1.184.441,1.643a20.206,20.206,0,0,1,2.855,5.824c.629,2.434,1.888,3.574,3.779,3.112C233.058,450.028,235.616,446.426,233.986,441.861Zm-1.839-7.393c-.567-1.578-.672-3.5-2.236-4.533-.494-.325-3.3,2.472-3.061,3.115.676,1.811,2.489,1.713,3.959,2.107C231.375,435.053,232.517,435.5,232.147,434.468Z"/><path class="cls-1" d="M245.144,263.173c3,1.1,6.189-.653,9.183.591.071.03.169,0,.236.035,2.528,1.338,4.984,2.828,7.447,4.259,1.934,1.124,1.1,3.418-1.5,5.034.194.423.656.946.54,1.252-.9,2.388.4,4.331,1.157,6.388.121-.3.252-.588.361-.888a32.008,32.008,0,0,1,5.961-10.143c.523-.605,1.087-1.271,2.057-.732a4.5,4.5,0,0,1,2.365,2.324c.324,1.037-.92,1.11-1.5,1.589a6.728,6.728,0,0,0-1.765,1.615c-1.887,3.467-4.077,6.771-5.3,10.6a12.821,12.821,0,0,1-3.84,6.307c-.005,2.334,1.565,4,2.54,5.913s1.649,1.868,2.7-.1a86.126,86.126,0,0,0,3.806-8.325c1.1-2.728,1.739-5.719,3.9-7.938a4.643,4.643,0,0,1,2.312-2.642c2.123-1.137,3.438-.427,3.61,1.976a11.268,11.268,0,0,1-.1,1.93c-.419,4.1-.927,8.194-1.232,12.3-.107,1.441-.589,3.463,1.11,4.105,1.488.562,2.119-1.394,3.119-2.25.061-.053.126-.1.189-.151l-.035.052.5-.464c1.973-4.224,4.675-8.068,6.354-12.452,2.053-5.359,3.93-10.715,4.414-16.522a6.377,6.377,0,0,0-3.965-6.968c-.653-.319-1.308-.635-1.961-.953a27.839,27.839,0,0,0-1.961,9.151,21.576,21.576,0,0,1-2.616,9.7c-.321.531-.467,1.287-1.294,1.259-1.069-.036-3.619-4.287-2.914-5.081,2.5-2.812,1.989-6.317,2.578-9.59.479-2.667.61-5.474,2.308-7.794-6.209-4.408-13.069-7.66-19.993-10.674-11.816-5.144-23.795-9.91-35.708-14.829a7.009,7.009,0,0,0-3.5-.786c-.1,1.163.664,1.974,1.262,2.8,2.351,3.231,4.7,6.467,7.18,9.6,3.223,4.071,5.71,8.622,8.57,12.926A19.8,19.8,0,0,1,245.144,263.173Z"/><path class="cls-4" d="M116.244,231.028a1.879,1.879,0,0,1-.03-.481c1.193-6,1.078-6.206-4.548-7.816-1.992.163-4,.217-5.978.515a15.741,15.741,0,0,1-9.141-1.235,23.735,23.735,0,0,0-6.609-2.119,3.553,3.553,0,0,1-2.3-.033l-.615-.018c-3.85.826-7.113,3-10.578,4.684a75.362,75.362,0,0,1-12.485,5.21,3.27,3.27,0,0,0-1.316.574c-5.405,4.986-12.486,5.458-19.117,7.138-1.01.256-2.558-.3-2.672,1.353a3.518,3.518,0,0,0,2.084,3.3c1.391.776,2.98.592,4.571.856-.777.924-1.958.822-2.813,1.38-.617.4-1.347.776-1.311,1.592.037.84.824,1.142,1.5,1.392,2.27.841,4.454.151,6.64-.428.388-.1.778-.2,1.168-.3.178-.176.383-.307.567-.049.049.068-.079.261-.126.4-.54,1.253-1.148,2.482-1.6,3.766a2.192,2.192,0,0,0,.5,2.67A1.454,1.454,0,0,0,54.176,253c.522-.584.971-.415,1.435.037,1.256,1.224,2.2.417,3.075-.51,1.3-1.379,1.9-3.175,2.752-4.819,3.16-6.072,8.306-9.039,15.241-9.715-.785,1.926-2.148,3.09-3.234,4.44a25.744,25.744,0,0,0-3.7,5.075c-.967,2.082-.06,3.339,2.229,3.083a6.489,6.489,0,0,0,3.639-1.8c1.726-1.579,3.449-3.175,5.035-4.891a22.044,22.044,0,0,1,7.63-5.3c.553.344.345.731.23,1.1a5.866,5.866,0,0,0,5.07,7.786,31.156,31.156,0,0,1,4.983.825,3.227,3.227,0,0,0,1.91.024,18.259,18.259,0,0,1,8.621-1.323c2.151.191,3.4-1.848,3.451-4.177a11.528,11.528,0,0,0-.263-2.842c-.773-2.211-.849-3.993,1.4-5.541C114.793,233.681,115.406,232.19,116.244,231.028Z"/><path class="cls-3" d="M129.615,150.516c-2,3.046-5.012,5.168-7.277,7.971-.748,3.191-1.022,6.271,1.605,8.885.718.714.084,1.273-.576,1.676-1.311,3.716-3.443,7.039-5.084,10.6a159.389,159.389,0,0,0-7.7,21.515,1.807,1.807,0,0,0,.015,1.374c.463.569,1-.008,1.487-.218,1.538-.659,2.885-2.309,4.506-2.034,1.538.26,1.677,2.635,3.152,3.448,1.088-1.353.49-2.935.576-4.416a35.167,35.167,0,0,1,1.517-9.94c.258-4.632,1.974-8.927,3.13-13.348.631-2.411,1.494-4.762,2.261-7.137a4.416,4.416,0,0,1,3.871-2.842c1.5-.238,1.274,1.582,1.786,2.476a13.626,13.626,0,0,1,1.551,6.521c.125,4.43.211,8.86.313,13.29.892,2.007.521,4.308,1.521,6.311.6,1.209.98,2.529,2.23,3.445.294-.867.5-1.643.812-2.375,1.436-3.38,4.207-4.629,7.6-3.407,2.728.982,5.434,2.023,8.153,3.028a2.536,2.536,0,0,0,.657.007c.21-1.744-.918-2.967-1.771-4.241a96.823,96.823,0,0,1-5.395-8.3,10.907,10.907,0,0,1-1.5-5.536c.068-1.954.23-3.671,2.98-3.634,1.826.025,2.8-1.434,3.215-3.129.611-2.5,1.161-5.016,1.736-7.526,1.317-5.414,2.563-10.845,2.421-16.465-.084-3.361-1.346-4.844-4.6-5.791a10.1,10.1,0,0,0-7.714,1.039,45.426,45.426,0,0,0-7.825,5.625C135.039,149.221,132.651,150.672,129.615,150.516Z"/><path class="cls-5" d="M245.144,263.173a19.8,19.8,0,0,0-3.429-7.576c-2.86-4.3-5.347-8.855-8.57-12.926-2.479-3.132-4.829-6.368-7.18-9.6-.6-.822-1.36-1.633-1.262-2.8a2.855,2.855,0,0,1-1.742-1.214c-7.444-10.254-15.053-20.4-20.423-31.98-.883-1.9-1.739-3.818-2.607-5.727-1.475,1.223-2.67,2.813-4.44,3.648-3.9,1.838-8.091.324-11.134-4.119-.59-.861-1.281-1.6-1.905-2.419a1.433,1.433,0,0,0-1.521.065,6.174,6.174,0,0,0,.651,2.563,102.979,102.979,0,0,0,9.717,18.132c3.452,5.266,7.041,10.441,10.57,15.655,3.124,3.986,6.3,7.933,9.36,11.965q7,9.216,13.854,18.537a62.447,62.447,0,0,1,7,11.342,6.284,6.284,0,0,0,6.39-2.24C240.336,262.164,242.812,263.059,245.144,263.173Z"/><path class="cls-4" d="M87.474,361.805c-4.457,6.282-12.026,7.669-18.517,3.544a54.664,54.664,0,0,1-20.028-23.021c-1.948-4.019-3.778-8.252-7.858-10.775-3.7.451-5.071,2.059-4.9,5.75a18.928,18.928,0,0,0,1.41,5.856c1.607,4.235,3.921,8.128,5.872,12.2A42.312,42.312,0,0,1,46.7,362.91a27.1,27.1,0,0,1-8.292-4.62c-1.9-.113-3.151-1.539-4.635-2.422-10.248-6.1-19.673-13.25-27.6-22.235-2.86-3.243-2.8-3.292-5.584-.324.155,2.614,2.034,4.348,3.366,6.307C13.737,354,27.518,362.622,44.084,367.143a10.247,10.247,0,0,1,5.416,3.242c2.846,3.254,7.042,4.138,11.166,4.688a50.22,50.22,0,0,0,27.322-3.447c6.694-2.939,7.823-8.065,3.234-13.762C90,359.2,89.185,360.931,87.474,361.805Z"/><path class="cls-4" d="M273.49,280.956c-2.16,2.219-2.8,5.21-3.9,7.938a86.126,86.126,0,0,1-3.806,8.325c-1.049,1.963-1.725,2-2.7.1s-2.545-3.579-2.54-5.913a16.559,16.559,0,0,1-2.77-6.909l-.068-.132-.149.007c-1.3.1-2.772.965-3.661-.807-1.675-1.431-2.893-1.25-4.191.707-2.021,3.047-4.437,5.285-8.483,4.418-1.345,4.293-2.358,8.789-1.207,13.122a43.637,43.637,0,0,1,1.157,18.214c-.145,1.727-.588,3.515,1,4.885,1.933.892,3.033-.119,3.906-1.692a21.994,21.994,0,0,0,2.424-12.424c-.074-1.157-.44-2.529,1.109-3.929.423,5.338,4.2,9.722,1.879,15.018.712,2.654,1.5,5.158,4.273,6.595,1.207.626,1.168,2.4,1.722,3.641.465,1.042,1.062,1.894,2.277,1.8,1.092-.084,1.638-.947,1.913-1.936.646-2.327,1.266-4.662,1.9-6.994a8.168,8.168,0,0,1,.61-2.076c.66-1.092,1.438-2.573,2.622-2.63,1.047-.051.686,1.717,1.185,2.577.382.66.366,1.764,1.407,1.736s1.062-1.121,1.273-1.824a14.647,14.647,0,0,0,.764-6.895,3.984,3.984,0,0,1,.532-3,47.4,47.4,0,0,0,3.708-7.856c-1.983-2.267-1.637-4.925-1.22-7.565.665-4.209,2.123-8.259,2.536-12.521C277.3,281.8,276.7,281.125,273.49,280.956Z"/><path class="cls-6" d="M96.147,351.613c-.664-1.262.3-1.978.985-2.716a40.409,40.409,0,0,1,6.545-5.5c-.462-.806-1.294-.7-1.878-.93-2.261-.9-3.334-2.426-3.027-4.892a11.58,11.58,0,0,0,.126-2.9c-.249-1.886-1.2-3.073-3.343-3.067a80.7,80.7,0,0,1-10.655-.353c-6.921-.895-11.45-5.945-11.708-12.944a43.808,43.808,0,0,0-1-5.911c-1.5,10.456.657,19.855,7.948,27.81a75.875,75.875,0,0,1,7.465,8.873,19.718,19.718,0,0,1,3.232,7.745c1.335-.387,1.48-1.753,2.183-2.66C93.866,353.077,94.405,351.609,96.147,351.613Z"/><path class="cls-7" d="M87.474,361.805c1.711-.874,2.525-2.6,3.748-3.941l-.45-.492c-7.631,1.984-14.035-.547-19.56-5.634-5.981-5.507-10.2-12.472-15.061-18.9C52.4,327.867,48.557,323,43.262,319.505c-2.459-1.622-4.342-1.7-6.119.046-.475.466-1.059,1-.02,1.456,8.96,3.946,14.169,11.664,19.529,19.27,2.836,4.026,5.435,8.217,8.537,12.061C70.951,359.478,77.877,363.752,87.474,361.805Z"/><path class="cls-3" d="M87.021,219.841l.615.018a2.006,2.006,0,0,1,2.3.033,23.735,23.735,0,0,1,6.609,2.119,15.741,15.741,0,0,0,9.141,1.235c1.974-.3,3.986-.352,5.978-.515.166-1.095-.542-1.16-1.336-1.149a11.481,11.481,0,0,1-1.938-.04c-.725-.116-2.228.318-2.017-.481.322-1.223-.974-2.824.771-3.7,1.643-.825,1.308-1.947.471-3.178-3.447-5.07-3.461-5.1-8.33-1.4-1.03.782-1.763,1.015-2.418-.287a2.344,2.344,0,0,0-2.8-1.3,7.1,7.1,0,0,1-4.045-.47c-2.39-1.066-4.413.058-4.736,2.71C85,215.777,85.964,217.833,87.021,219.841Z"/><path class="cls-1" d="M.589,333.309c2.779-2.968,2.724-2.919,5.584.324,7.924,8.985,17.349,16.138,27.6,22.235,1.484.883,2.734,2.309,4.635,2.422a60.06,60.06,0,0,1-3.13-7.669,7.462,7.462,0,0,1-3.441-1.047c-9.723-5.329-17.437-12.823-23.82-21.831-1.471-2.075-2.483-4.477-4.367-6.259-2.171,1.694-4.038,3.455-3.576,6.671C.314,329.85-.094,331.636.589,333.309Z"/><path class="cls-7" d="M3.647,321.484c1.884,1.782,2.9,4.184,4.367,6.259,6.383,9.008,14.1,16.5,23.82,21.831a7.462,7.462,0,0,0,3.441,1.047q-.816-3.442-1.631-6.884c-2.017.354-3.367-1.038-4.73-2.044a75.505,75.505,0,0,1-13.626-13.586c-2.875-3.553-5.783-7.079-8.677-10.617A7.2,7.2,0,0,0,3.647,321.484Z"/><path class="cls-6" d="M171.014,324.109c-.507,3.318-2.105,4.632-5.561,4.571-5.338-.094-5.9.387-6.83,5.758a16.681,16.681,0,0,1-.446,1.623c.712,4.256,1.069,8.578,2.513,12.692.85,2.421,1.531,4.915,3.377,6.841.214-2.381-.283-4.781.194-7.154a15.393,15.393,0,0,1,1.232-6.049c.4-3.207,2.367-5.716,3.8-8.458C170.911,330.832,172.07,327.67,171.014,324.109Z"/><path class="cls-1" d="M251.5,321.879c2.318-5.3-1.456-9.68-1.879-15.018-1.549,1.4-1.183,2.772-1.109,3.929a21.994,21.994,0,0,1-2.424,12.424c-.873,1.573-1.973,2.584-3.906,1.693-1.152-.123-1.671.647-2.274,1.459-1.744,2.346-2.754,5.08-4.158,7.6-1.875,3.373-2.682,3.814-6.314,3.132l.638,2.078c1.37,1.487,3.534.67,5.049,1.738a31.273,31.273,0,0,0,11.451-11.48c1.135-1.947,2.217-3.925,3.325-5.887C250.287,322.859,250.555,322.046,251.5,321.879Z"/><path class="cls-5" d="M116.244,231.028c-.838,1.162-1.451,2.653-2.563,3.417-2.253,1.548-2.177,3.33-1.4,5.541a11.528,11.528,0,0,1,.263,2.842l8.752,4.421c2.97-2.2,4.252-4.925,2.752-8.58-.6-1.461-.265-3.028-.327-4.549C121.037,233.547,118.956,231.526,116.244,231.028Z"/><path class="cls-7" d="M283.9,256.565c-1.7,2.32-1.829,5.127-2.308,7.794-.589,3.273-.083,6.778-2.578,9.59-.7.794,1.845,5.045,2.914,5.081.827.028.973-.728,1.294-1.259a21.576,21.576,0,0,0,2.616-9.7,27.839,27.839,0,0,1,1.961-9.151A9.519,9.519,0,0,0,283.9,256.565Z"/><path class="cls-6" d="M273.49,280.956c3.213.169,3.81.846,3.506,3.972-.413,4.262-1.871,8.312-2.536,12.521-.417,2.64-.763,5.3,1.22,7.565a17.388,17.388,0,0,0,6.817-8.788c-.063.05-.128.1-.189.151-1,.856-1.631,2.812-3.119,2.25-1.7-.642-1.217-2.664-1.11-4.105.305-4.108.813-8.2,1.232-12.3a11.268,11.268,0,0,0,.1-1.93c-.172-2.4-1.487-3.113-3.61-1.976A4.643,4.643,0,0,0,273.49,280.956Z"/><path class="cls-5" d="M153.854,340.984c-2.9,2.639-5.787,5.292-8.708,7.908-.923.827-1.033,1.6,0,2.33,2.419,1.707,3.9,4.4,6.364,6.047.168-4.475,1.4-8.791,1.963-13.206C153.609,343.037,153.729,342.01,153.854,340.984Z"/><path class="cls-4" d="M119.351,156.393c2.167.5,3.353-1.091,4.617-2.3a21.494,21.494,0,0,0,6.131-10.417c.038-.151-.186-.368-.288-.554A18.027,18.027,0,0,0,119.351,156.393Z"/><path class="cls-8" d="M123.367,169.048c.66-.4,1.294-.962.576-1.676-2.627-2.614-2.353-5.694-1.605-8.885-1.486-.251-2.377.559-3.071,1.72A25.658,25.658,0,0,0,123.367,169.048Z"/><path class="cls-6" d="M282.962,295.814l-.5.464Z"/><path class="cls-9" d="M201.869,224.88c-3.529-5.214-7.118-10.389-10.57-15.655a102.979,102.979,0,0,1-9.717-18.132,6.174,6.174,0,0,1-.651-2.564c-.776-.878-1.794-.527-2.741-.537q-1.075,1.41-2.152,2.821c.483,5.44-2.474,9.541-5.467,13.545-.964,1.289-1.055,1.955-.015,3.218,2.5,3.044,2.37,4.407-.232,7.362-.265.3-.74.637-.723.935.169,3.036.467,6.271,2,8.748,1.174,1.9,3.791,2.5,6.535,1.768A60.1,60.1,0,0,1,201.869,224.88Z"/><path class="cls-7" d="M165.493,342.391a15.393,15.393,0,0,0-1.232,6.049c.451,1.341,1.067.948,1.95.32,4.841-3.44,8.332-8.051,11.323-13.064,5.932-9.942,9.458-20.8,11.916-32.04a30.541,30.541,0,0,0,.7-4.779,7.668,7.668,0,0,1,4.255-6.854c3.148-1.634,4.005-4.619,4.908-7.676a11.343,11.343,0,0,1,5.414-6.5c4.644-2.793,9.878-3.307,15.088-3.938.833-.1,2.342.5,2.219-.978a2.671,2.671,0,0,0-2.362-2.407c-9.224-1.413-19.169,3.442-23.36,11.825-1.675,3.35-3.4,6.34-7.055,7.816-2.561,1.034-2.87,3.48-3.3,5.805a171.753,171.753,0,0,1-5.49,21.571,94.425,94.425,0,0,1-6.209,14.927c-1.721,3.266-3.634,6.486-6.659,8.83A3.861,3.861,0,0,1,165.493,342.391Z"/><path class="cls-7" d="M79.045,295.771c3.806-2.267,7.521-4.706,11.436-6.766,8.25-4.34,16.838-7.062,26.3-4.427a27.15,27.15,0,0,1,11.284,5.89c2.16,1.977,4.948,1.795,7.391,2.736,2.126.82,4.014,2.077,6.14,2.846.419.152.795.708,1.272.208.322-.337.011-.758-.012-1.145-.22-3.789-2.809-5.577-5.968-6.423a26,26,0,0,1-8.206-3.853,28.609,28.609,0,0,0-14.139-4.6c-12.252-.98-22.9,2.913-32.239,10.676-1.517,1.261-3.256,2.521-3.251,4.866Z"/><path class="cls-7" d="M124.186,342.9a6.194,6.194,0,0,0,.468,3.362c7.843-.832,11.956-6.642,16.335-12.156,4.588-5.78,8.352-12.278,14.5-16.72,3.37-2.437,6.924-4.419,11.189-4.614,1.728-.08,1.73-.754.905-1.923a3.072,3.072,0,0,0-3.574-1.255c-7.855,1.711-13.92,6.139-18.835,12.288-3.619,4.528-6.969,9.276-10.692,13.714C131.727,338.871,128.518,341.736,124.186,342.9Z"/><path class="cls-4" d="M134.743,188.336c-.1-4.43-.188-8.86-.313-13.29a13.626,13.626,0,0,0-1.551-6.521c-.512-.894-.29-2.714-1.786-2.476a4.416,4.416,0,0,0-3.871,2.842c-.767,2.375-1.63,4.726-2.261,7.137-1.156,4.421-2.872,8.716-3.13,13.348,3.6-1.92,7.2-3.855,10.809-5.752,1.705-.894,2.4-.212,2.286,1.585C134.86,186.251,134.8,187.294,134.743,188.336Z"/><path class="cls-6" d="M33.644,343.737q.815,3.442,1.631,6.884a60.06,60.06,0,0,0,3.13,7.669,27.1,27.1,0,0,0,8.292,4.62,42.312,42.312,0,0,0-3.247-7.555c-1.951-4.068-4.265-7.961-5.872-12.2a18.928,18.928,0,0,1-1.41-5.856c-.168-3.691,1.2-5.3,4.9-5.75a13.461,13.461,0,0,0-4.159-4.331c-1.876-1.28-2.97-.868-3.5,1.334-1.016,4.245-.5,8.513-.009,12.771C33.5,342.129,33.565,342.934,33.644,343.737Z"/><polygon class="cls-7" points="79.052 295.778 78.911 295.901 79.045 295.771 79.052 295.778"/><path class="cls-10" d="M132.356,509.509c.129-.633.289-1.271-.314-1.776A2,2,0,0,0,132.356,509.509Z"/><path class="cls-8" d="M178.19,187.992c.947.01,1.965-.341,2.741.537a1.435,1.435,0,0,1,1.521-.064c.063-.049.119-.125.191-.145,3.723-1.047,3.61-1.038,3.307-5.311a37.338,37.338,0,0,1-.078-7.952c.181-1.266.576-2.454,1.838-2.911,1.142-.414,1.693.715,2.355,1.356,2.031,1.968,4.071,3.933,6,6,1.1,1.18,2.016,1.257,2.9-.077a28.059,28.059,0,0,1,4.252-4.629c1.494-1.429,1.286-2.637-.5-3.323-2.164-.834-3-2.462-3.552-4.5a38.429,38.429,0,0,0-3.334-8.8c-.69-1.24-1.3-1.326-2.487-.912-3.81,1.329-7,3.2-8.045,7.528a1.722,1.722,0,0,1-2.733,1.045c-3.585-2.754-7.411-1.419-11.18-.937-3.894.5-3.147.71-2.529,3.762.608,3,1.078,6.084,3.128,8.54,2.692,3.226,2.725,3.2,2.692,7.142C174.655,187.734,174.751,187.834,178.19,187.992Z"/><path class="cls-3" d="M241.225,288.685c4.046.867,6.462-1.371,8.483-4.418,1.3-1.957,2.516-2.138,4.19-.707l3.662.807.149-.007.068.132c.552.012,1.105.008,1.656.037,3.593.191,3.593.193,2.828-3.327a4.569,4.569,0,0,1-.057-.47c-.755-2.057-2.055-4-1.157-6.388.116-.306-.346-.829-.54-1.252-.155-.042-.447-.086-.447-.125.053-2.856-2.48-2.888-4.169-3.838-.421-.237-.835-.489-1.239-.752-3.077-2-3.084-1.991-4.215,1.5a12.4,12.4,0,0,0-.318,4.317c.026.861,1.042,2.054-.364,2.508a3.184,3.184,0,0,1-3.738-.865,30.42,30.42,0,0,0-5.029-5.5c-2.4-1.829-2.514-1.775-3.717,1.026a8.435,8.435,0,0,1-4.061,4.43,8.673,8.673,0,0,1,4.69,7.277C238.893,285.009,238.738,287.629,241.225,288.685Z"/><path class="cls-1" d="M241.225,288.685c-2.487-1.056-2.332-3.676-3.325-5.617-1.484.969-2.474-.53-3.708-.793a25.931,25.931,0,0,1-3.912-1.6c2.378,3.18,4.349,5.861,4.289,9.375.191.253.526.492.553.761.818,8.349.5,16.5-4.4,23.787a23.84,23.84,0,0,0-3.964,11.783c1.065.215,1.069,1.324,1.645,1.939,1,1.073,1.733,2.844,3.389,2.706,1.523-.127,2.173-1.723,2.826-3.023,1.116-2.221,2.345-4.391,3.333-6.667.711-1.638,1.736-1.9,3.228-1.314a43.634,43.634,0,0,0-1.157-18.213C238.867,297.474,239.88,292.978,241.225,288.685Z"/><path class="cls-6" d="M226.754,326.379a23.84,23.84,0,0,1,3.964-11.783c4.9-7.285,5.222-15.438,4.4-23.787-.027-.269-.362-.508-.553-.761a34.151,34.151,0,0,1-6.551,20.878c-4.888,6.879-6.009,14.347-2.631,22.249a11.973,11.973,0,0,0,4.683,6l-.638-2.078C227.375,333.819,226.832,330.157,226.754,326.379Z"/><path class="cls-4" d="M110.05,552.051c-.134,3.743.041,3.943,3.28,3.462a12.672,12.672,0,0,0,6.256-2.928,1.891,1.891,0,0,0,.62-2.15,23.714,23.714,0,0,0-4.244-9.1,2.114,2.114,0,0,0-2.188-1.1c-1.107.172-1.428.768-1.726,1.68A32.33,32.33,0,0,0,110.05,552.051Z"/><path class="cls-8" d="M119.883,537.767a5.426,5.426,0,0,0,.377.87c1.547,2.14,3.106,4.271,4.748,6.522,1.4-1.545,1.84-3.516,2.607-5.31.446-1.043-.256-1.45-1.1-1.73A12,12,0,0,0,119.883,537.767Z"/><path class="cls-4" d="M227.572,449.887c5.486.141,8.044-3.461,6.414-8.026-.275-.769-.78-.917-1.408-1.09a40.46,40.46,0,0,1-7.719-2.736c-1.761-.9-3.06.5-4.362,1.273-.715.426.143,1.184.441,1.643a20.206,20.206,0,0,1,2.855,5.824C224.422,449.209,225.681,450.349,227.572,449.887Z"/><path class="cls-7" d="M230.809,435.157c.566-.1,1.708.338,1.338-.689-.567-1.578-.672-3.5-2.236-4.533-.494-.325-3.3,2.472-3.061,3.115C227.526,434.861,229.339,434.763,230.809,435.157Z"/><path class="cls-7" d="M262.2,280.732a4.569,4.569,0,0,0,.057.47c.765,3.52.765,3.518-2.828,3.327-.551-.029-1.1-.025-1.656-.037a16.559,16.559,0,0,0,2.77,6.909,12.821,12.821,0,0,0,3.84-6.307c1.22-3.826,3.41-7.13,5.3-10.6a6.728,6.728,0,0,1,1.765-1.615c.579-.479,1.823-.552,1.5-1.589a4.5,4.5,0,0,0-2.365-2.324c-.97-.539-1.534.127-2.057.732a32.008,32.008,0,0,0-5.961,10.143C262.456,280.144,262.325,280.436,262.2,280.732Z"/><path class="cls-10" d="M89.938,219.892a2.006,2.006,0,0,0-2.3-.033A3.553,3.553,0,0,0,89.938,219.892Z"/><path class="cls-10" d="M53.134,246.934c.047-.135.175-.328.126-.4-.184-.258-.389-.127-.567.049Z"/><path class="cls-7" d="M226.754,326.379c.078,3.778.621,7.44,2.678,10.723,3.632.682,4.439.241,6.314-3.132,1.4-2.524,2.414-5.258,4.158-7.6.6-.812,1.122-1.582,2.274-1.459-1.591-1.371-1.148-3.159-1-4.886-1.492-.586-2.517-.325-3.228,1.313-.988,2.276-2.217,4.446-3.333,6.667-.653,1.3-1.3,2.9-2.826,3.023-1.656.138-2.384-1.633-3.389-2.706C227.823,327.7,227.819,326.594,226.754,326.379Z"/><path class="cls-11" d="M257.56,284.367l-3.662-.807C254.788,285.332,256.258,284.466,257.56,284.367Z"/><path class="cls-12" d="M176.6,119.483c10.961.865,18.05-5.211,23.913-13.409a121.28,121.28,0,0,0,6.558-11.027,11.7,11.7,0,0,1,7.748-6.079c8.9-2,17.738-4.267,26.942-4.489a42.129,42.129,0,0,1,12.2,1.637c2.108.578,2.485-.233,2.177-2.007-.5-2.862-.892-5.749-1.558-8.572-.429-1.816.206-2.607,1.787-3.349,3.725-1.748,7.319-3.774,11.041-5.527,1.612-.758,1.436-1.393.377-2.437a22.275,22.275,0,0,0-12.735-5.949c-4.5-.693-9.033-.418-13.553-.509-2.318-.047-2.593-.473-1.594-2.559.873-1.819,1.863-3.582,2.707-5.413,1.2-2.616,1.166-2.693-1.634-2.635-3.469.072-6.935.306-10.4.377-2.653.054-2.823-.259-1.757-2.764.412-.966.929-1.887,1.361-2.846.255-.566.867-1.184.394-1.774-.429-.534-1.209-.287-1.846-.234-6.844.565-11.927,4.157-16.019,9.4-2.235,2.862-4.386,5.79-6.578,8.685-.726.959-1.542,1.779-2.183,0a16.053,16.053,0,0,0-4.467-6.244c-.575-.539-1.66-1.408.189-1.732,7.745-1.356,10.9-7.089,13.13-13.711.36-1.071.6-2.183.928-3.266a4.2,4.2,0,0,0-.955-4.23c-3.621-4.431-7.922-8.3-10.823-13.337a38.946,38.946,0,0,1-3.645-8.174,8.518,8.518,0,0,0-5.834-5.932A22.757,22.757,0,0,0,175,2.159c-2.664,1.208-3.875,3.77-5,6.322-1.366,3.107-2.906,6.143-4.151,9.3-.834,2.115-2.01,2.129-3.71,1.218-5.129-2.747-10.227-5.556-15.428-8.161a28.193,28.193,0,0,0-10.142-3.076,3.887,3.887,0,0,0-4.04,1.984,19.63,19.63,0,0,0-3.127,6.781c-.456,2.5-1.888,2.859-3.9,2.877a49.255,49.255,0,0,0-11.96,1.684,15.512,15.512,0,0,0-8.03,4.7,6.048,6.048,0,0,1-5.767,2.357c-3.677-.589-5.857,1.383-7.778,4.134-4.023,5.758-5.627,12.263-6.14,19.126-.064.857-.258,1.8.463,2.536A42.124,42.124,0,0,1,109.4,42.463c-8.319,4.59-16.909,8.768-23.079,16.369.06,4.871.438,5.269,5.021,5.3a1.928,1.928,0,0,1,.236.03c5.71-.336,11.216-1.45,16.214-4.385a3.818,3.818,0,0,1,3.018-.449,42.872,42.872,0,0,1,6.664,2.193c9.342,4.11,15.633,11.45,20.944,19.791.8,1.259,1.519,1.85,3.044,1.712a5.328,5.328,0,0,1,5.628,3.356c.552,1.167,1.065,2.354,1.592,3.533,1.535,3.436,4.009,5.637,7.9,5.848A4.014,4.014,0,0,1,159.66,97.4a26.046,26.046,0,0,1,2.887,4.172C166.169,108.373,169.154,115.684,176.6,119.483Z"/><rect class="cls-13" x="149.709" y="114.494" width="2.949" height="2.949" transform="translate(-0.641 0.84) rotate(-0.318)"/><rect class="cls-13" x="146.776" y="117.459" width="2.95" height="2.95" transform="translate(-0.657 0.824) rotate(-0.318)"/><polygon class="cls-13" points="140.886 120.45 140.902 123.399 143.851 123.383 146.801 123.366 146.785 120.417 143.835 120.433 140.886 120.45"/><polygon class="cls-13" points="135.003 123.432 135.02 126.381 137.969 126.365 140.918 126.349 140.902 123.399 137.953 123.416 135.003 123.432"/><path class="cls-13" d="M190.829,84.778l2.95-.017-.017-2.949-.016-2.95-.017-2.949-.016-2.95-.017-2.949-.016-2.949-.016-2.95-.017-2.949-.016-2.95-.017-2.949-2.949.016-.016-2.949-2.95.016-.016-2.949-2.95.016-.016-2.949-2.95.016-.016-2.949-2.949.016-.017-2.949-2.949.016-.017-2.949-2.949.016-.017-2.949-2.949.016-.016-2.949-2.95.016-2.949.016-2.95.017-2.949.016-2.949.017-2.95.016-2.949.016-2.95.017-2.949.016-2.95.017-2.949.016L134.5,32l-2.95.016-2.949.016-2.95.017-2.949.016-2.95.017L116.8,32.1l-2.949.017-2.95.016-2.949.016-2.95.017-2.949.016L99.1,32.2l-2.949.016-2.95.016.017,2.95,2.949-.017.016,2.95,2.95-.017.017,2.95,2.949-.017.016,2.95-2.949.016.016,2.95-2.949.016-2.95.017.017,2.949-2.95.016.017,2.95-2.95.016.017,2.95-2.95.016.017,2.949-2.95.017.017,2.949-2.95.017.017,2.949,2.949-.016,2.95-.017.016,2.95.016,2.949.017,2.95L84.6,76.52l.017,2.949.016,2.95.016,2.949.017,2.95.016,2.949.017,2.95.016,2.949.017,2.95.016,2.949.016,2.949.017,2.95,2.949-.016L87.714,106l2.949-.016-.016-2.95,2.949-.016.017,2.949,2.949-.016L96.546,103l-.017-2.949,2.95-.017.016,2.95.017,2.949.016,2.95,2.949-.017.017,2.95,2.949-.017,2.95-.016,2.949-.016,2.949-.017,2.95-.016,2.949-.017-.016-2.949,2.949-.016,2.95-.017.016,2.95.017,2.949.016,2.949,2.949-.016,2.95-.016,2.949-.017,2.95-.016,2.949-.017-.016-2.949-2.95.016-2.949.017-2.949.016-2.95.017-.016-2.95-.017-2.949-.016-2.95-.017-2.949-.016-2.95,2.95-.016,2.949-.016,2.949-.017,2.95-.016.016,2.949.017,2.95,2.949-.017.016,2.95,2.95-.017,2.949-.016,2.95-.017,2.949-.016,2.95-.016,2.949-.017,2.949-.016,2.95-.017,2.949-.016-.016-2.949,2.949-.017-.016-2.949,2.95-.017-.017-2.949-.016-2.95,2.949-.016.016,2.949.017,2.95-2.949.016.016,2.95.016,2.949,2.95-.016,2.949-.017-.016-2.949-.017-2.95,2.95-.016-.017-2.949L185,96.608l-.017-2.949-.016-2.95,2.95-.016,2.949-.016-.016-2.95Zm-82.65-11.339-.016-2.949-.017-2.949,2.95-.017.016,2.95.017,2.949.016,2.949-2.949.017ZM105.3,85.254l-.017-2.95-.016-2.949,2.949-.017,2.95-.016.016,2.949.016,2.95.017,2.949-2.95.017-2.949.016Zm64.9,2.588.016,2.949-2.949.017-.017-2.95ZM96.513,97.1l-.017-2.95,2.95-.016.016,2.949Zm41.292-.23-2.95.016-2.949.017-2.949.016-2.95.016-.016-2.949-.016-2.949-2.95.016-.017-2.949-.016-2.95-.016-2.949,2.949-.017-.016-2.949-.017-2.95,2.95-.016-.017-2.95-.016-2.949,2.949-.016.017,2.949.016,2.95.017,2.949.016,2.949.016,2.95.017,2.949.016,2.95,2.95-.017-.017-2.949,2.95-.017,2.949-.016,2.95-.016-.017-2.95,2.95-.016,2.949-.017,2.949-.016,2.95-.016-.016-2.95,2.949-.016-.017-2.95-2.949.017-2.949.016.016,2.95-2.949.016-2.95.016-2.949.017-2.95.016.017,2.95-2.95.016-.016-2.949,2.949-.017-.016-2.949-.016-2.95-.017-2.949,2.95-.017-.017-2.949-.016-2.949,2.949-.017,2.95-.016-.017-2.95-.016-2.949-.017-2.95,2.95-.016.016,2.95,2.95-.017.016,2.95.016,2.949,2.95-.017.016,2.95.017,2.949.016,2.95.016,2.949,2.95-.016.016,2.949.017,2.95,2.949-.017.017,2.95-2.95.016-2.949.016-2.95.017-2.949.016-2.95.017-2.949.016.017,2.95-2.95.016.016,2.949-2.949.017.016,2.949Z"/><polygon class="cls-5" points="108.179 73.439 108.196 76.389 111.145 76.372 111.129 73.423 111.112 70.474 111.096 67.524 108.146 67.541 108.163 70.49 108.179 73.439"/><polygon class="cls-5" points="158.32 73.16 158.303 70.211 158.287 67.261 155.337 67.278 155.321 64.329 155.305 61.379 152.355 61.396 152.339 58.446 149.389 58.462 149.406 61.412 149.422 64.361 149.439 67.311 146.489 67.327 143.54 67.344 143.556 70.293 143.573 73.242 140.623 73.259 140.64 76.208 140.656 79.158 140.672 82.107 143.622 82.091 146.571 82.074 149.521 82.058 152.47 82.042 152.454 79.092 155.403 79.076 158.352 79.059 158.336 76.11 158.32 73.16"/><polygon class="cls-5" points="105.296 85.254 105.312 88.203 108.261 88.187 111.211 88.17 111.194 85.221 111.178 82.271 111.162 79.322 108.212 79.338 105.263 79.355 105.279 82.304 105.296 85.254"/><polygon class="cls-5" points="122.992 85.155 123.008 88.105 123.025 91.054 125.975 91.038 125.991 93.987 126.007 96.936 128.957 96.92 131.906 96.904 134.855 96.887 137.805 96.871 140.754 96.854 140.738 93.905 143.687 93.888 143.671 90.939 146.621 90.923 146.604 87.973 149.553 87.957 152.503 87.94 155.452 87.924 158.402 87.907 161.351 87.891 164.301 87.875 164.284 84.925 161.335 84.942 161.318 81.992 161.302 79.043 158.352 79.059 158.369 82.009 155.42 82.025 155.436 84.975 152.486 84.991 149.537 85.007 146.588 85.024 143.638 85.04 143.655 87.99 140.705 88.006 137.756 88.022 134.806 88.039 134.823 90.988 131.873 91.005 131.857 88.055 131.84 85.106 131.824 82.156 131.808 79.207 131.791 76.258 131.775 73.308 131.758 70.359 128.809 70.375 128.825 73.324 128.842 76.274 125.892 76.29 125.909 79.24 125.925 82.189 122.976 82.206 122.992 85.155"/><rect class="cls-5" x="137.731" y="82.115" width="2.95" height="2.95" transform="translate(-0.461 0.773) rotate(-0.318)"/><rect class="cls-5" x="167.258" y="87.85" width="2.95" height="2.949" transform="translate(-0.493 0.937) rotate(-0.318)"/><rect class="cls-5" x="96.505" y="94.143" width="2.95" height="2.95" transform="translate(-0.533 0.549) rotate(-0.32)"/><path class="cls-5" d="M173.247,105.522l-2.949.017.016,2.949-2.949.016-2.95.017-2.949.016-2.949.017-2.95.016-2.949.016-2.95.017-2.949.016-2.95.017-.016-2.95-2.949.017-.017-2.95-.016-2.949-2.95.016-2.949.017-2.949.016-2.95.016.016,2.95.017,2.949.016,2.95.017,2.949.016,2.95,2.95-.017,2.949-.016,2.949-.017,2.95-.016.016,2.949-2.949.017-2.95.016-2.949.017-2.95.016-2.949.016-.016-2.949-.017-2.949-.016-2.95-2.95.017-2.949.016.016,2.949-2.949.017-2.95.016-2.949.017-2.949.016-2.95.016-2.949.017-.017-2.95-2.949.017-.016-2.95-.017-2.949-.016-2.95-2.95.017L96.546,103l.016,2.95.017,2.949.016,2.95.016,2.949.017,2.95,2.949-.017.017,2.95.016,2.949,2.949-.016.017,2.949,2.949-.016.017,2.949,2.949-.016,2.95-.017.016,2.95,2.949-.017,2.95-.016,2.949-.017,2.95-.016,2.949-.016,2.95-.017,2.949-.016,2.949-.017,2.95-.016,2.949-.016,2.95-.017,2.949-.016,2.95-.017,2.949-.016,2.95-.016,2.949-.017-.017-2.949,2.95-.017,2.949-.016,2.95-.017-.017-2.949,2.95-.016-.017-2.95-.016-2.949,2.949-.017-.016-2.949-.016-2.95,2.949-.016-.016-2.949-.017-2.95-.016-2.949-.016-2.95-2.95.017Zm-29.412,14.911,2.95-.016-.017-2.949,2.95-.017L149.7,114.5l2.95-.017.016,2.95-2.949.016.016,2.95-2.949.016.016,2.949-2.95.017-2.949.016.016,2.95-2.949.016-2.949.016L135,123.432l2.95-.016,2.949-.017-.016-2.949Z"/><polygon class="cls-5" points="179.113 99.59 179.097 96.641 176.148 96.657 176.164 99.607 176.181 102.556 179.13 102.54 179.113 99.59"/><polygon class="cls-5" points="193.861 99.508 196.81 99.492 196.794 96.542 196.777 93.593 193.828 93.609 193.811 90.66 190.862 90.677 187.913 90.693 184.963 90.709 184.979 93.659 184.996 96.608 185.012 99.558 185.029 102.507 182.079 102.523 182.096 105.473 182.112 108.422 185.061 108.406 185.045 105.456 187.995 105.44 190.944 105.424 190.928 102.474 193.877 102.458 193.861 99.508"/></svg>